<?xml version="1.0" encoding="UTF-8" standalone="no"?>
<!DOCTYPE svg PUBLIC "-//W3C//DTD SVG 1.1//EN" "http://www.w3.org/Graphics/SVG/1.1/DTD/svg11.dtd">
<svg width="100%" height="100%" viewBox="0 0 2916 3000" version="1.1" xmlns="http://www.w3.org/2000/svg" xmlns:xlink="http://www.w3.org/1999/xlink" xml:space="preserve" xmlns:serif="http://www.serif.com/" style="fill-rule:evenodd;clip-rule:evenodd;stroke-linejoin:round;stroke-miterlimit:2;">
    <g>
        <path d="M1195.37,2942.93C1047.6,2826.13 973.434,2654.65 988.148,2463.83L996.504,2355.5L937.313,2320.34L878.125,2285.2L793.824,2374.07C706.125,2466.53 622.426,2516.94 492.703,2555.43C413.387,2578.96 309.09,2585.84 309.09,2567.53C309.09,2561.73 330.293,2540.08 356.207,2519.4C382.121,2498.72 427.684,2444.98 457.461,2399.97C487.242,2354.97 548.23,2268.02 593,2206.76C637.77,2145.5 674.398,2089.04 674.398,2081.28C674.398,2073.53 649.594,2028.82 619.281,1981.91C588.969,1935 553.5,1863.54 540.469,1823.11L516.77,1749.59L346.188,1659.17C252.371,1609.44 136.102,1557.17 87.816,1543.01C39.527,1528.85 0.012,1513.54 0,1508.99C-0.012,1504.43 16.727,1493.07 37.195,1483.75C114.152,1448.68 250.535,1426.35 388.93,1426.15C549.523,1425.92 532.652,1438.8 564.004,1292.46C573.938,1246.1 611.367,1151.12 647.176,1081.4L712.289,954.641L658.309,884.695C573.949,775.395 416.121,429.055 439.855,405.32C457.66,387.516 916.152,673.457 952.359,724.949C969.43,749.223 976.191,747.66 1078.81,695.75C1196.26,636.344 1304.5,611.023 1441.01,611.023L1528.04,611.023L1557.73,530.234C1628.82,336.789 1629.11,233.41 1558.94,95.063C1508.01,-5.359 1507.75,-12.914 1556.05,12.074C1625.88,48.191 1755.88,198.977 1802.71,298.176C1844.85,387.426 1847.6,402.859 1847.6,550.387L1847.6,707.531L1896.29,730.742C1943.35,753.184 2049.66,829.953 2066.68,853.789C2071.25,860.203 2119.47,820.977 2173.83,766.621C2287.68,652.766 2415.93,583.449 2580.45,546.848C2690.79,522.297 2756.54,529.027 2706.3,559.727C2611.91,617.406 2528.76,703.191 2396.43,879.438L2245.74,1080.14L2281.87,1207.43C2301.73,1277.44 2321.97,1372.63 2326.84,1418.97L2335.7,1503.22L2506.13,1564.76C2603.18,1599.81 2727.98,1633.47 2795.99,1642.94L2915.42,1659.59L2866.25,1690.53C2767.43,1752.69 2645.73,1781.63 2466.12,1785.67C2303.56,1789.32 2297.53,1790.56 2289.1,1821.96C2284.3,1839.84 2266.41,1881.81 2249.34,1915.22L2218.31,1975.97L2293.75,2062.75C2397.99,2182.65 2613.34,2477.49 2613.34,2500.3C2613.34,2545.06 2337.25,2426.31 2129.05,2292C2075.21,2257.26 2024.62,2233.13 2016.65,2238.36C2008.68,2243.6 1967.38,2270.76 1924.88,2298.72L1847.6,2349.55L1854.62,2551.62C1858.49,2662.77 1859.93,2756.47 1857.84,2759.85C1855.75,2763.23 1825.39,2737.94 1790.39,2703.64C1733.45,2647.88 1629.81,2472.64 1629.82,2432.16C1629.82,2421.41 1580.17,2417.27 1471.75,2418.97L1313.68,2421.45L1283.09,2496.25C1266.27,2537.39 1245.19,2613.46 1236.26,2665.29C1222.45,2745.41 1223.56,2771.71 1243.62,2840.73C1256.61,2885.39 1276.26,2939.4 1287.31,2960.75C1317.32,3018.8 1282.91,3012.13 1195.36,2942.93L1195.37,2942.93Z" style="fill-rule:nonzero;"/>
    </g>
</svg>
