<?xml version="1.0" encoding="UTF-8" standalone="no"?>
<!DOCTYPE svg PUBLIC "-//W3C//DTD SVG 1.1//EN" "http://www.w3.org/Graphics/SVG/1.1/DTD/svg11.dtd">
<svg width="100%" height="100%" viewBox="0 0 1964 1978" version="1.1" xmlns="http://www.w3.org/2000/svg" xmlns:xlink="http://www.w3.org/1999/xlink" xml:space="preserve" xmlns:serif="http://www.serif.com/" style="fill-rule:evenodd;clip-rule:evenodd;stroke-linejoin:round;stroke-miterlimit:2;">
    <g transform="matrix(4.16667,0,0,4.16667,-2351.06,-5480.79)">
        <path d="M799.761,1682.09C795.822,1682.09 791.933,1681.88 788.083,1681.53L779.833,1680.53C774.389,1679.68 769.069,1678.46 763.871,1676.95L763.913,1676.88L747.335,1670.61L747.28,1670.87C742.85,1668.89 738.551,1666.67 734.4,1664.22L734.65,1663.96L720.054,1653.9L719.878,1654.27C716.064,1651.26 712.412,1648.05 708.962,1644.64L709.327,1644.4L697.562,1631.15L697.325,1631.43C694.381,1627.6 691.626,1623.62 689.117,1619.47L689.419,1619.37L681.168,1603.68L681.049,1603.77C679.039,1599.1 677.309,1594.3 675.852,1589.37L673.013,1577.9C671.397,1569.73 670.536,1561.29 670.543,1552.65C670.605,1481.34 728.672,1423.37 799.982,1423.43C871.292,1423.49 929.26,1481.56 929.2,1552.87C929.138,1624.18 871.071,1682.15 799.761,1682.09ZM990.171,1592.72C987.557,1593.36 985.036,1593.63 982.631,1593.43L974.769,1590.16C972.391,1588.16 970.169,1585.52 967.704,1583.87C963.511,1581.69 959.059,1581.02 954.397,1581.7L944.779,1577.71C945.953,1570.9 946.608,1563.92 946.807,1556.82L992.4,1549.75L946.539,1542.73C946.059,1535.79 945.085,1528.98 943.68,1522.33L945.829,1521.43C949.415,1523.17 952.757,1523.91 955.982,1524.17C960.121,1524.34 964.212,1524.25 967.751,1521.92C971.281,1519.56 974.299,1515.13 978.014,1513.53C981.698,1511.8 985.861,1512.03 990.233,1513.11C998.863,1515.39 1007.02,1515.08 1014.86,1513.03C1022.38,1510.19 1029.49,1505.7 1035.53,1496.85L1035,1494.68C1016.72,1485.27 1000.93,1489.37 987.323,1501.26C985.766,1502.63 984.157,1503.8 982.483,1504.7L970.89,1505.74C968.348,1505.04 965.752,1504.13 963.318,1503.86C958.951,1503.88 954.984,1505.13 951.396,1507.5L940.123,1508.51C938.068,1501.99 935.528,1495.69 932.624,1489.6L970.575,1461.51L925.81,1476.91C922.325,1471.14 918.459,1465.63 914.239,1460.41L915.666,1458.69C919.317,1458.48 922.407,1457.64 925.196,1456.45C928.94,1454.68 932.52,1452.7 934.568,1448.98C936.599,1445.26 937.214,1439.93 939.757,1436.79C942.217,1433.55 946.009,1431.81 950.382,1430.74C959.086,1428.75 966.161,1424.68 972.152,1419.22C977.489,1413.22 981.697,1405.93 982.935,1395.29C982.935,1395.29 981.459,1393.62 981.458,1393.62C960.892,1393.78 948.819,1404.74 942.298,1421.6C941.525,1423.62 940.606,1425.49 939.479,1427.12L930.171,1433.12C927.496,1433.73 924.633,1434.12 922.253,1435.06C918.402,1437.1 915.548,1440.11 913.496,1443.88L904.623,1449.61C899.922,1444.83 894.865,1440.42 889.552,1436.32L910.244,1393.52L877.686,1428.04C872.001,1424.49 866.061,1421.31 859.888,1418.54L860.332,1416.44C862.846,1414.74 864.803,1412.82 866.463,1410.79C868.957,1407.48 871.203,1404.06 871.292,1399.82C871.359,1395.58 869.428,1390.58 870.218,1386.61C870.891,1382.6 873.442,1379.3 876.814,1376.32C883.598,1370.51 887.973,1363.62 890.741,1356.01C892.674,1348.21 893.016,1339.8 889.165,1329.8L887.082,1329.01C868.945,1338.7 863.351,1354.03 865.409,1371.98C865.78,1375.08 865.708,1378.01 864.94,1380.67L861.912,1386.03C859.556,1388.54 856.129,1390.65 853.917,1393.22C851.164,1397.23 850.078,1401.75 850.271,1406.62L846.436,1413.41C840.044,1411.27 833.517,1409.43 826.77,1408.18L825.226,1361.36L812.652,1406.3C808.478,1405.94 804.264,1405.71 799.997,1405.71C797.309,1405.71 794.657,1405.85 792.007,1406L791.305,1403.51C792.165,1401.53 792.844,1399.58 793.238,1397.66C793.909,1393.57 794.309,1389.5 792.418,1385.7C790.505,1381.91 786.471,1378.38 785.327,1374.5C784.058,1370.64 784.785,1366.53 786.383,1362.32C789.693,1354.03 790.365,1345.9 789.276,1337.87C787.363,1330.06 783.759,1322.46 775.702,1315.39C775.702,1315.39 773.49,1315.66 773.489,1315.66C761.936,1332.68 764.104,1348.84 774.269,1363.78C776.822,1367.49 778.502,1371.31 778.189,1375.36C778,1379.4 774.921,1383.79 773.962,1387.93C773.305,1393.5 774.806,1398.64 778.131,1403.4L778.005,1407.42C770.988,1408.47 764.123,1409.97 757.464,1411.97L734.995,1372.38L744.435,1416.56C737.749,1419.28 731.322,1422.49 725.171,1426.12L723.144,1423.98C722.936,1422.62 722.666,1421.31 722.304,1420.05C720.999,1416.12 719.46,1412.33 716.022,1409.85C712.568,1407.39 707.355,1406.13 704.539,1403.23C701.62,1400.4 700.355,1396.42 699.813,1391.95C698.891,1383.07 695.706,1375.56 691.01,1368.95C685.688,1362.93 678.964,1357.88 668.548,1355.36L666.713,1356.63C664.389,1377.06 673.822,1390.37 689.766,1398.88C693.75,1400.97 697.011,1403.57 698.619,1407.31C700.329,1410.97 699.642,1416.29 700.715,1420.4C702.992,1426.34 707.385,1430.59 713.683,1433.24L713.837,1433.55C707.892,1437.85 702.407,1442.71 697.177,1447.82L660.227,1424.08L688.071,1457.55C683.217,1463.24 678.734,1469.25 674.784,1475.64L671.111,1474.39C670.696,1473.9 670.334,1473.31 669.901,1472.86C666.918,1469.99 663.793,1467.34 659.596,1466.74C655.987,1466.25 651.692,1467.06 648.103,1466.52L643.433,1464.92C640.909,1463.43 638.803,1461.15 636.927,1458.43C631.984,1450.99 625.671,1445.82 618.443,1442.15C610.933,1439.3 602.63,1437.94 592.239,1440.56L591.202,1442.53C598.641,1461.71 613.177,1469.11 631.247,1469.23C635.751,1469.23 639.846,1470.02 643.005,1472.58C646.223,1475.03 648.086,1480.06 650.943,1483.2C655.518,1487.22 661.091,1488.96 667.532,1488.59C664.463,1494.91 661.852,1501.49 659.703,1508.27L618.048,1504.6L656.427,1520.54C654.743,1528.08 653.636,1535.84 653.157,1543.76L649.034,1544.4C648.701,1544.28 648.367,1544.08 648.033,1543.96C644.056,1542.81 640.061,1541.92 636.066,1543.34C633.301,1544.34 630.534,1546.33 627.767,1547.7L619.287,1549.01C616.901,1548.63 614.515,1547.76 612.129,1546.51C604.298,1542.23 596.305,1540.58 588.2,1540.69C580.221,1541.65 572.241,1544.31 564.257,1551.46L564.255,1553.69C579.753,1567.21 596.063,1567 612.119,1558.71C616.11,1556.63 620.1,1555.42 624.088,1556.22C628.076,1556.89 632.063,1560.48 636.051,1561.93C641.877,1563.34 647.528,1562.34 652.98,1559.15C653.283,1566.23 654.118,1573.16 655.384,1579.95L618.119,1595.5L658.149,1591.9C660.305,1599.74 663.088,1607.31 666.454,1614.57L663.184,1616.99C662.707,1617.04 662.184,1617.01 661.717,1617.09C657.658,1617.91 653.708,1618.98 650.83,1622.09C648.712,1624.41 647.132,1627.76 645.15,1630.34L639.292,1634.67C636.83,1635.63 634.075,1636.03 631.109,1636.03C622.184,1635.87 614.341,1638.13 607.217,1642C600.597,1646.55 594.768,1652.62 591.019,1662.65L592.053,1664.63C612.059,1669.4 626.406,1661.64 636.771,1646.84C639.335,1643.13 642.306,1640.21 646.209,1639.06C650.054,1637.81 655.25,1639.13 659.456,1638.56C665.423,1637.07 670.052,1633.42 673.419,1627.82C677.094,1633.99 681.228,1639.86 685.74,1645.41L660.428,1675.95L693.756,1654.45C699.378,1660.31 705.471,1665.71 711.992,1670.58L710.5,1673.66C709.557,1674.23 708.664,1674.84 707.818,1675.47C704.605,1678.09 701.605,1680.87 700.504,1684.96C699.424,1689.07 700.102,1694.39 698.386,1698.05C696.772,1701.78 693.506,1704.37 689.517,1706.47C681.542,1710.48 675.645,1716.12 671.134,1722.85C667.391,1729.96 665.047,1738.04 666.393,1748.67L668.226,1749.94C688.157,1744.87 697.255,1731.33 699.554,1713.41C700.103,1708.94 701.375,1704.97 704.298,1702.14C707.119,1699.24 712.334,1697.99 715.793,1695.54C720.677,1691.18 723.112,1685.38 723.236,1678.28C729.686,1682.23 736.466,1685.68 743.523,1688.61L735.278,1727.54L754.946,1692.74C762.521,1695.16 770.357,1696.99 778.41,1698.17L778.511,1701.22C777.441,1702.71 776.498,1704.22 775.769,1705.75C774.14,1709.56 772.777,1713.42 773.705,1717.55C774.656,1721.69 777.727,1726.08 777.91,1730.12C778.216,1734.18 776.528,1737.99 773.969,1741.7C768.771,1748.96 766.172,1756.69 765.308,1764.75C765.297,1772.79 766.977,1781.03 773.109,1789.82L775.321,1790.09C790.611,1776.33 792.375,1760.12 786.081,1743.18C784.49,1738.97 783.771,1734.86 785.046,1731C786.196,1727.12 790.237,1723.59 792.157,1719.81C794.517,1713.52 793.757,1707.08 790.337,1700.57L790.646,1699.47C793.66,1699.66 796.684,1699.81 799.747,1699.81C804.709,1699.82 809.598,1699.53 814.433,1699.05L825.526,1738.42L826.806,1697.32C834.572,1695.88 842.098,1693.77 849.386,1691.16L850.655,1693.39C850.051,1696.07 849.914,1698.57 850.009,1700.98C850.336,1705.11 850.922,1709.16 853.667,1712.39C856.43,1715.61 861.193,1718.08 863.232,1721.57C865.388,1725.02 865.666,1729.18 865.122,1733.65C863.891,1742.49 865.186,1750.55 868.165,1758.09C871.891,1765.21 877.209,1771.73 886.722,1776.66C886.722,1776.66 888.806,1775.87 888.807,1775.87C895.952,1756.58 889.979,1741.4 876.534,1729.33C873.168,1726.34 870.622,1723.04 869.956,1719.03C869.173,1715.06 871.112,1710.06 871.054,1705.82C870.294,1699.74 867.243,1694.73 862.131,1690.72L861.2,1686.37C868.188,1683.16 874.881,1679.42 881.225,1675.2L910.496,1706.12L891.748,1667.53C897.59,1662.84 903.047,1657.7 908.11,1652.19L910.227,1653.55C910.896,1656.94 912.079,1659.74 913.525,1662.25C915.733,1665.76 918.135,1669.07 922.067,1670.66C926.01,1672.22 931.372,1672.19 934.801,1674.34C938.313,1676.39 940.492,1679.94 942.088,1684.15C945.108,1692.56 949.999,1699.09 956.14,1704.38C962.748,1708.95 970.486,1712.25 981.2,1712.2L982.68,1710.53C980.046,1690.13 967.703,1679.47 950.186,1675.03C945.816,1673.94 942.027,1672.2 939.573,1668.96C937.035,1665.81 936.429,1660.48 934.406,1656.75C931.375,1652.4 927.092,1649.68 921.869,1648.24L916.686,1642.01C921.121,1636.21 925.115,1630.07 928.66,1623.65L970.717,1638.03L934.691,1611.47C937.531,1604.96 939.89,1598.19 941.773,1591.23L944.156,1591.44C946.498,1594.57 949.077,1596.74 951.771,1598.45C955.355,1600.52 959.021,1602.34 963.239,1601.92C967.459,1601.47 972.192,1598.95 976.225,1599.26C980.289,1599.44 983.87,1601.58 987.24,1604.57C993.819,1610.6 1001.19,1614.11 1009.08,1615.94C1017.06,1616.92 1025.44,1616.25 1034.91,1611.22L1035.44,1609.06C1023.63,1592.22 1007.74,1588.51 990.171,1592.72Z" style="fill:rgb(3,4,4);fill-rule:nonzero;"/>
    </g>
    <path d="M981.325,1476.25C712.671,1476.04 494.304,1257.29 494.533,988.625C494.762,720 713.504,501.625 982.154,501.833C1250.8,502.083 1469.17,720.833 1468.95,989.458C1468.72,1258.12 1249.98,1476.5 981.325,1476.25Z"/>
    <g transform="matrix(4.16667,0,0,4.16667,-2351.06,-5480.79)">
        <path d="M799.773,1669.69C735.296,1669.64 682.888,1617.14 682.943,1552.66C682.998,1488.19 735.496,1435.78 799.972,1435.83C864.448,1435.89 916.857,1488.39 916.802,1552.86C916.747,1617.34 864.249,1669.75 799.773,1669.69ZM799.977,1429.92C732.244,1429.87 677.093,1484.92 677.035,1552.66C676.977,1620.39 732.034,1675.54 799.767,1675.6C867.501,1675.66 922.652,1620.6 922.71,1552.87C922.767,1485.13 867.71,1429.98 799.977,1429.92Z" style="fill:rgb(3,4,4);fill-rule:nonzero;"/>
    </g>
</svg>
