<?xml version="1.0" encoding="UTF-8" standalone="no"?>
<!DOCTYPE svg PUBLIC "-//W3C//DTD SVG 1.1//EN" "http://www.w3.org/Graphics/SVG/1.1/DTD/svg11.dtd">
<svg width="100%" height="100%" viewBox="0 0 12667 12692" version="1.1" xmlns="http://www.w3.org/2000/svg" xmlns:xlink="http://www.w3.org/1999/xlink" xml:space="preserve" xmlns:serif="http://www.serif.com/" style="fill-rule:evenodd;clip-rule:evenodd;stroke-linejoin:round;stroke-miterlimit:2;">
    <g transform="matrix(4.16667,0,0,4.16667,0,0)">
        <g transform="matrix(0.251282,0,0,0.261154,-82.0581,-115.378)">
            <path d="M4086.5,7384.54C4056.16,7315 4024.43,7248.17 4086.75,7177C4097.19,7165.08 4101.66,7144.29 4103.01,7127.08C4105.48,7095.75 4100.05,7061.33 4070.36,7049.04C4036.31,7034.88 4030.94,7074.67 4016.84,7094.62C4006.79,7108.88 4000.83,7126.33 3989.82,7149C3958.03,7086.04 3969.64,7032.33 3992.03,6979.38C4000.19,6960.08 4013.25,6943.08 4020.93,6923.62C4034.76,6888.62 4027.37,6853.96 3997.9,6835.29C3970.07,6817.67 3953.17,6851.71 3934.38,6867C3921.81,6877.21 3923.13,6902 3899.55,6908.21C3875.35,6848.42 3865.99,6788.83 3926.16,6748.67C3964.27,6723.21 3989.32,6698.46 3978.38,6648.62C3972.74,6622.96 3959.01,6608.54 3932.12,6602.83C3875.33,6590.79 3876.05,6649.75 3844.27,6680C3803.94,6427.75 3820.67,6183.12 3866.28,5940.46C3922.24,5642.71 4040.75,5367.83 4194.62,5117.04C4392.38,4794.79 4645.58,4518.83 4960.29,4322.17C5542.92,3958.06 6170.12,3827.74 6838.88,3967.04C7251.21,4052.92 7620.42,4237.96 7948,4519.29C8154.21,4696.38 8327.67,4899.88 8477.38,5133.21C8608.83,5338.04 8685.58,5562.58 8759.96,5792.38C8855.08,6086.21 8853.62,6384.38 8824.29,6689.38C8811.08,6684.46 8802.71,6683.88 8801.54,6680.5C8783.96,6629.62 8745.21,6584.21 8701.88,6613.71C8661.54,6641.12 8682.71,6701.62 8710.88,6743.92C8778.38,6845.33 8778.5,6845.25 8751.88,6914.96C8747.54,6913.92 8741.29,6914.46 8739.04,6911.54C8716.79,6882.79 8704.08,6820.12 8663.08,6843C8619.83,6867.12 8641.46,6924.71 8656.62,6967.79C8693.67,7073.25 8694.08,7073.08 8670.71,7148.71C8664.16,7142.29 8657.91,7137.46 8653.25,7131.25C8633.91,7105.46 8632.58,7043.5 8587.5,7067.21C8541.2,7091.58 8551.92,7152.38 8575.66,7187.58C8624.08,7259.29 8598.5,7317.12 8566.54,7380.67C8536.5,7367.08 8546.21,7315.54 8506.71,7321.42C8465.79,7327.5 8474.5,7368.5 8469.25,7394C8413.92,7662.83 8263.12,7872.58 8090.88,8064.92C7482.58,8744.12 6747.21,9033.92 5867.58,8855.5C5568.92,8794.92 5295.83,8666.46 5041.71,8485.5C4758.08,8283.5 4508.08,8048.79 4332.08,7736.21C4272.92,7631.08 4213.17,7523.83 4182,7402.75C4174.54,7373.88 4186.04,7325.88 4145.14,7320C4110.68,7315.04 4119.26,7369.96 4086.5,7384.54Z"/>
        </g>
        <path d="M2073.21,522.87C2102.85,502.48 2135.06,493.896 2155.55,463.958C2116.15,461.044 2080.41,485.265 2073.21,522.87ZM827.858,1411.46C731.361,1373.08 637.806,1399.27 544.261,1425.85C640.036,1451.5 732.557,1402.47 827.858,1411.46ZM2132.39,2289.47C2131.8,2326.07 2144.87,2358.2 2166.62,2383.2C2202.42,2424.36 2234.86,2467.67 2262.62,2515.13C2264.36,2518.1 2266.31,2521.43 2271.96,2518.18C2270.69,2472.66 2259.6,2431.83 2229.21,2395.74C2198.32,2359.06 2161.99,2328.14 2132.39,2289.47ZM2838.81,1631.48C2841.71,1567.65 2768.11,1523.32 2718.63,1539.55C2702.08,1544.98 2691.8,1557.2 2691.24,1576.47C2690.77,1592.66 2706.27,1604.34 2720.83,1599.14C2764.19,1583.65 2783.03,1592.5 2793.74,1637.92C2798.53,1658.2 2809.6,1655.3 2822.73,1654.69C2838.78,1653.95 2839.17,1642.55 2838.81,1631.48ZM2200.02,1685.09C2210.86,1695.03 2222.09,1696.19 2232.29,1699.67C2298.06,1722.08 2360.98,1750.11 2415.17,1797.2C2435.81,1815.14 2458.26,1830.77 2480.21,1846.96C2489.38,1853.72 2499.47,1858.99 2512.18,1860.79C2470.74,1768.13 2323.39,1663.41 2200.02,1685.09ZM829.463,1601.49C823.95,1597.55 822.485,1595.68 820.795,1595.42C724.959,1580.31 636.925,1605.8 553.402,1653.81C541.708,1660.54 533.821,1672.04 527.12,1684.07C524.28,1689.17 522.359,1695.45 525.81,1700.65C529.819,1706.7 535.764,1703.54 540.806,1701.58C559.481,1694.34 578.15,1687.07 596.702,1679.48C629.346,1666.13 662.085,1653 694.452,1638.93C736.557,1620.61 781.322,1612.99 829.463,1601.49ZM553.982,1039.73C612.058,1077.18 666.351,1119.19 722.407,1158.32C768.31,1190.36 818.09,1212.29 870.657,1228.03C876.574,1229.8 882.134,1231.17 888.11,1226.44C847.242,1199.05 807.464,1172.17 768.327,1144.13C733.692,1119.32 701.7,1090.46 664.607,1069.28C629.823,1049.42 594.441,1034.43 553.982,1039.73ZM1136.54,441.598C1133.84,415.029 1144.43,391.612 1150.96,367.601C1158.65,339.342 1176.93,319.687 1203.84,310.835C1216.07,306.81 1226.59,300.293 1235.7,291.348C1268.25,259.405 1258.25,197.369 1218.22,181.631C1213.05,179.598 1206.93,176.615 1202.6,181.225C1197.4,186.754 1205.38,189.519 1206.97,193.71C1217.22,220.871 1213.04,238.156 1190.65,255.856C1181.84,262.819 1172.01,268.316 1163.06,275.1C1106.62,317.904 1094.3,389.212 1136.54,441.598ZM2211.34,1498.89C2211.41,1500.82 2211.48,1502.76 2211.55,1504.69C2215.99,1505.46 2220.43,1506.29 2224.88,1506.99C2258.87,1512.36 2293.04,1516.74 2326.84,1523.27C2391,1535.68 2453.61,1557.51 2519.86,1556.89C2571.93,1556.39 2621.27,1546.55 2663.2,1511.35C2703.58,1477.44 2742.88,1441.91 2795.28,1429.93C2798.84,1429.11 2804.41,1428.33 2803.96,1422.52C2803.59,1417.65 2798.95,1416.22 2795.11,1414.71C2785.99,1411.12 2776.54,1409.73 2766.85,1408.98C2730.21,1406.16 2698.57,1422.21 2671.06,1443.76C2605.61,1495.01 2533.47,1509.85 2454.32,1499.21C2407.9,1492.97 2361.41,1486.16 2314.48,1485.54C2279.49,1485.07 2244.93,1488.56 2211.34,1498.89ZM859.425,2680.46C870.295,2656.49 883.136,2637.18 896.792,2618.38C911.524,2598.1 925.427,2576.76 943.417,2559.93C993.299,2513.27 1043.04,2465.93 1081.65,2408.6C1119.38,2352.58 1142.9,2288.35 1152.76,2219.86C1157.58,2186.42 1157.58,2152.3 1151.22,2116.35C1129.63,2135.03 1127.05,2160.11 1121.72,2182.67C1104.28,2256.53 1073.45,2323.18 1030.75,2384.01C1027.05,2389.29 1023.67,2394.9 1019.46,2399.67C977.864,2446.92 931.203,2488.73 890.505,2537.15C872.042,2559.12 857.7,2581.73 850.5,2609.28C844.514,2632.19 845.225,2655.24 859.425,2680.46ZM2204.08,1408.25C2209.02,1416.71 2213.63,1415.19 2217.31,1414.95C2276.89,1411.07 2335.71,1419.85 2394.13,1429.38C2489.23,1444.91 2577.62,1432.54 2656.85,1370.54C2677.14,1354.66 2700.85,1347 2725.53,1342.54C2754.81,1337.25 2784.74,1342.03 2813.98,1335.59C2838.47,1330.21 2855.58,1307.98 2853.83,1282.39C2852.12,1257.35 2833.86,1236.1 2813.18,1234.66C2798.19,1233.61 2788.82,1237.67 2791.9,1256.59C2794.58,1273.05 2788.53,1280.49 2771.6,1280.2C2746.18,1279.77 2720.87,1281.4 2695.73,1287.75C2659.97,1296.77 2630.88,1319.15 2600.54,1338.66C2565.18,1361.4 2527.76,1375.91 2486.82,1381.27C2429.08,1388.84 2371.14,1381.8 2313.36,1384.82C2276.3,1386.76 2240.07,1393.35 2204.08,1408.25ZM2020.22,2021.62C2017.06,2033.3 2021.89,2040.19 2024.14,2047.5C2031.39,2071.06 2045.57,2090.9 2055.77,2112.85C2078.52,2161.8 2109.82,2203.8 2146.49,2241.54C2155.25,2250.55 2164.54,2258.96 2174.43,2266.93C2217.23,2301.43 2264.34,2328.79 2308.55,2360.82C2334.68,2379.76 2357.59,2403.99 2374.09,2432.29C2410.21,2494.28 2408.3,2561.27 2390.36,2629.04C2388.62,2635.62 2383.51,2641.92 2390.11,2650.39C2415.86,2633.81 2437.75,2614.14 2447.99,2582.8C2480.46,2483.36 2434.2,2390.75 2365.01,2331.97C2337.33,2308.46 2305.57,2290.34 2274.66,2271.34C2223.43,2239.85 2174.57,2204.77 2136.26,2155.61C2112.23,2124.8 2088.13,2094.02 2063,2064.23C2050.43,2049.32 2035.48,2036.66 2020.22,2021.62ZM1050.91,1047.48C1052.16,1046.27 1053.41,1045.05 1054.65,1043.83C1051.94,1037.32 1049.51,1030.67 1046.48,1024.32C1020.73,970.341 989.993,919.346 957.766,869.73C939.324,841.336 915.428,816.19 889.32,794.592C828.882,744.592 756.708,714.975 693.947,669.012C641.766,630.797 601.786,583.904 599.601,511.932C599.203,498.832 600.419,485.675 600.957,472.547C601.23,465.905 602.038,458.654 595.007,455.442C588.882,452.643 584.65,457.768 580.736,461.774C562.391,480.55 550.778,502.212 549.735,530.409C547.673,586.185 571.473,631.149 605.183,669.132C647.09,716.352 702.425,744.791 756.088,774.128C815.843,806.796 870.666,845.747 915.406,899.41C941.303,930.473 965.921,962.798 992.84,992.817C1010.61,1012.64 1031.45,1029.37 1050.91,1047.48ZM1642.11,2222.79C1644.18,2271.52 1646.71,2316.61 1647.87,2361.75C1649.73,2433.47 1635.91,2501.65 1598.21,2561.88C1558.85,2624.76 1508.01,2678.44 1468.2,2741.37C1441.64,2783.35 1428.75,2827.42 1432.29,2876.68C1435.69,2924.14 1463.04,2960.15 1500.7,2971.34C1502.82,2965.05 1498.88,2960.08 1497.23,2954.71C1478.84,2894.88 1479.71,2835.47 1510.61,2781.31C1533.19,2741.73 1559.74,2703.79 1589.39,2669.9C1619.19,2635.85 1643.23,2597.8 1662.72,2557.85C1711,2458.91 1706.99,2356.91 1666.77,2255.4C1661.93,2243.17 1655.16,2233.02 1642.11,2222.79ZM1527.85,873.522C1534.69,845.462 1533.59,822.904 1535.22,800.639C1540.15,733.071 1542.3,665.154 1562.34,599.756C1581.65,536.743 1618.82,486.669 1659.63,437.936C1697.06,393.229 1739.5,353.853 1776.06,308.121C1802.39,275.189 1821.22,240.51 1826.18,198.198C1830.95,157.443 1819.81,121.714 1790.89,93.115C1786.08,88.356 1779.97,84.414 1774.33,86.369C1766.75,88.994 1770.34,97.494 1770.5,103.476C1771.12,126.086 1774.07,148.803 1772.75,171.258C1769.94,219.215 1748.16,256.651 1716.53,291.291C1676.45,335.195 1635.81,378.647 1597.35,424.404C1559.13,469.87 1531.69,521.355 1511.56,576.416C1487.2,643.027 1488.65,713.863 1499.25,783.859C1503.68,813.099 1510.81,841.976 1527.85,873.522ZM836.771,1690.15C802.446,1681.06 768.641,1686.57 735.486,1693.9C656.293,1711.42 586.012,1751.66 516.546,1793.63C473.468,1819.66 428.849,1842.4 381.691,1858.78C336.622,1874.44 290.615,1880.87 243.354,1869.99C210.457,1862.42 187.715,1840.7 174.574,1809.9C159.275,1774.04 198.983,1728.04 231.453,1725.49C261.472,1723.12 283.782,1735.53 293.225,1761.69C299.676,1779.56 316.263,1789.27 333.497,1782.98C351.159,1776.53 344.633,1759.6 342.856,1747.35C339.804,1726.3 327.697,1709.34 311.159,1697.93C285.807,1680.44 257.402,1672.39 226.858,1674.53C136.055,1680.9 88.283,1780.41 136.694,1862.03C159.667,1900.77 195.548,1918.46 235.312,1927.58C313.434,1945.49 387.054,1925.8 458.108,1892.39C510.345,1867.82 558.973,1836.03 608.101,1805.25C635.809,1787.9 664.426,1772.08 693.149,1756.64C739.612,1731.68 787.699,1710.58 836.771,1690.15ZM980.759,1772.29C988.623,1768.79 986.562,1755.61 994.833,1756.8C1004.65,1758.21 1001.89,1769.73 1003.68,1776.66C1011.16,1805.72 1025.5,1831.46 1039.7,1856.69C1081.94,1931.71 1141.94,1988.04 1210.01,2036.52C1271,2079.95 1336.54,2110.78 1408.22,2125.32C1619.33,2168.14 1795.82,2098.59 1941.81,1935.58C1983.15,1889.42 2019.34,1839.08 2032.62,1774.56C2033.88,1768.44 2031.79,1758.6 2041.61,1757.14C2051.09,1755.73 2048.76,1768.1 2055.97,1771.36C2063.64,1756.11 2069.78,1742.23 2058.16,1725.02C2052.46,1716.57 2049.89,1701.98 2061,1696.13C2071.82,1690.44 2072.14,1705.31 2076.78,1711.5C2077.9,1712.99 2079.4,1714.15 2080.97,1715.69C2086.58,1697.54 2086.48,1697.58 2077.59,1672.27C2073.95,1661.93 2068.76,1648.11 2079.14,1642.32C2088.98,1636.83 2092.03,1651.87 2097.37,1658.77C2097.91,1659.47 2099.41,1659.34 2100.45,1659.59C2106.84,1642.86 2106.81,1642.88 2090.61,1618.54C2083.85,1608.39 2078.77,1593.87 2088.45,1587.29C2098.85,1580.21 2108.15,1591.11 2112.37,1603.32C2112.65,1604.13 2114.66,1604.27 2117.83,1605.45C2124.87,1532.25 2125.22,1460.69 2102.39,1390.17C2084.54,1335.02 2066.12,1281.13 2034.57,1231.97C1998.64,1175.97 1957.01,1127.13 1907.52,1084.63C1828.9,1017.11 1740.29,972.701 1641.33,952.089C1480.83,918.657 1330.3,949.935 1190.47,1037.32C1114.94,1084.52 1054.17,1150.75 1006.71,1228.09C969.781,1288.28 941.337,1354.25 927.906,1425.71C916.961,1483.95 912.946,1542.66 922.625,1603.2C930.253,1595.94 930.079,1581.79 943.708,1584.68C950.162,1586.05 953.458,1589.51 954.812,1595.67C957.437,1607.63 951.424,1613.57 942.278,1619.68C927.838,1629.32 930.085,1643.62 935.892,1657.97C941.551,1656.48 941.234,1650.53 944.252,1648.08C948.761,1644.41 952.816,1636.24 959.495,1640.47C966.568,1644.95 968.342,1653.27 965.024,1661.67C963.181,1666.34 960.045,1670.42 958.087,1675.05C952.714,1687.76 949.928,1700.65 957.557,1715.76C960.199,1710.32 961.63,1706.13 964.042,1702.71C967.426,1697.92 968.714,1688.37 976.887,1691.77C984.011,1694.72 985.314,1702.98 984.723,1710.5C984.398,1714.63 983.325,1719.62 980.819,1722.48C965.864,1739.56 973.478,1755.6 980.759,1772.29ZM1323.41,3032.43C1260.1,3022.75 1201.71,3013.67 1145.18,2994C1131.5,2989.24 1132.26,2977.73 1130.81,2967.99C1122.69,2913.23 1131.35,2861.81 1154.83,2811.62C1176.05,2766.28 1206.92,2729.51 1238.56,2693.33C1280.54,2645.35 1323.91,2598.32 1355.38,2541.89C1392.79,2474.8 1419.84,2403.2 1414.12,2322.72C1411.52,2286.28 1409.11,2249.34 1383.87,2215.21C1380.2,2249.63 1377.44,2280.46 1373.47,2311.11C1370.76,2332.04 1366.53,2352.75 1362.69,2373.51C1350.1,2441.57 1319.03,2500.93 1279.36,2554.21C1254.56,2587.52 1226.64,2618.79 1198.67,2649.74C1145.36,2708.72 1095.86,2770.89 1078.57,2854.97C1073.75,2878.43 1069.5,2901.55 1067.87,2925.29C1065.67,2957.21 1051.12,2964.87 1024.8,2952.1C959.525,2920.43 925.564,2816.29 983.26,2728.76C1008.96,2689.77 1044.6,2660.96 1077.63,2629.35C1120.36,2588.47 1162.62,2547.39 1196.11,2496.26C1254.76,2406.74 1272.29,2309.34 1257.88,2203.46C1257.19,2198.42 1256.21,2193.4 1254.97,2188.49C1254.29,2185.78 1252.78,2183.31 1251.24,2179.83C1242.13,2184.2 1243.23,2193.28 1241.8,2200.17C1236.9,2223.68 1232.67,2247.35 1228.55,2271.03C1218.09,2331.16 1196.15,2387.01 1166.4,2438.57C1141.03,2482.52 1106.06,2518.59 1069.85,2553.49C1030.29,2591.61 988.706,2627.26 952.798,2670.12C908.604,2722.86 889.622,2781.24 897.485,2850.52C899.811,2871.02 908.869,2889.31 914.605,2911.73C902.353,2907.18 891.312,2904.54 881.581,2899.21C849.217,2881.5 815.789,2865.94 784.885,2845.18C774.133,2837.96 773.187,2833.85 781.712,2822.51C827.887,2761.08 816.872,2681.64 757.018,2637.05C741.635,2625.58 749.826,2609.77 754.759,2599.87C769.956,2569.4 790.896,2544.09 821.878,2528.7C843.565,2517.92 863.099,2502.36 883.931,2489.54C890.753,2485.34 895.317,2479.92 893.065,2472.19C890.593,2463.7 882.534,2467.34 876.91,2467.53C823.129,2469.41 776.428,2490.52 736.912,2528.57C716.15,2548.56 704.757,2574.21 706.929,2604.78C707.873,2618.07 705.284,2624.08 690.735,2624.74C668.51,2625.75 649.139,2645.46 645.855,2666.41C644.134,2677.39 646.857,2686.25 655.988,2693.04C665.363,2700 672.285,2696.55 679.826,2689.65C694.495,2676.24 710.939,2673.91 727.285,2685.39C745.881,2698.45 755.544,2717.51 753.209,2741.37C751.167,2762.25 739.411,2776.26 720.472,2782.14C697.076,2789.4 675.75,2782.84 655.535,2769.52C602.834,2734.8 553.836,2695.05 508.829,2649.77C495.201,2636.06 477.346,2626.94 466.355,2607.07C491.364,2603.73 514.084,2599.03 537.195,2589.05C536.966,2618.01 540.203,2643.64 552.498,2667.92C563.741,2658.36 568.164,2645.55 572.002,2632.8C591.79,2567.06 640.208,2528.92 691.376,2493.69C755.985,2449.21 828.674,2419.28 891.648,2372.28C933.859,2340.79 967.856,2299.57 996.962,2253.48C1030.98,2199.6 1058.97,2143.7 1069.13,2079.1C1069.81,2074.79 1070.59,2070.48 1070.95,2066.14C1071.26,2062.58 1071.02,2058.97 1071.02,2053.28C1059.77,2058.82 1056.09,2068.91 1051.79,2077.87C1025.46,2132.76 990.801,2182.02 954.558,2229.37C900.99,2299.35 831.024,2348 755.312,2388.01C725.827,2403.6 697.407,2421.61 669.267,2439.85C627.146,2467.15 589.818,2502.39 544.566,2524.58C512.742,2540.17 479.848,2548.89 444.405,2543.88C393.013,2536.62 362.032,2498.84 331.166,2460.01C351.969,2465.05 372.48,2468.98 393.353,2471.01C459.056,2477.41 519.132,2457.75 574.877,2423.68C623.05,2394.23 669.121,2360.92 716.124,2329.33C752.057,2305.17 789.198,2282.79 823.623,2256.42C866.023,2223.95 903.505,2185.68 935.642,2141.16C961.018,2106.01 981.511,2068.92 994.253,2026.94C996.967,2018 1002.25,2004.44 995.138,2000.59C985.347,1995.28 982.444,2010.58 977.32,2017.17C935.377,2071.17 891.513,2123.42 841.161,2168.6C794.486,2210.49 741.993,2243.83 689.012,2276.26C658.684,2294.82 629.935,2316.31 600.767,2336.95C562.934,2363.72 524.944,2390.26 480.491,2403.23C392.935,2428.78 315.642,2411.52 252.221,2339.61C241.205,2327.12 226.308,2317.69 221.804,2297.24C268.557,2313.37 315.546,2321.47 363.836,2317.93C422.512,2313.63 477.31,2295.64 527.712,2263.57C576.668,2232.41 621.905,2195.62 667.388,2159.14C718.813,2117.9 772.978,2080.28 822.603,2036.8C865.706,1999.03 908.435,1959.86 943.645,1913.11C942.752,1911.35 941.859,1909.59 940.966,1907.84C917.089,1919.22 892.259,1928.8 869.522,1942.33C813.18,1975.86 759.661,2014.17 706.077,2052.5C642.292,2098.14 583.51,2150.94 519.241,2195.64C456.188,2239.49 387.967,2264.98 310.776,2258.15C235.844,2251.52 179.641,2214.04 140.884,2146.72C125.758,2120.45 112.517,2092.96 96.846,2063.02C109.732,2065.65 116.897,2070.63 124.287,2075.56C217.488,2137.72 315.891,2147.31 418.805,2107.18C463.708,2089.67 503.484,2062.64 542.074,2032.85C610.992,1979.65 683.409,1932.44 760.12,1892.48C804.177,1869.53 846.525,1842.9 894.486,1815.12C863.203,1813.66 837.636,1817.44 812.672,1823.16C751.832,1837.1 694.252,1860.34 639.334,1891.95C581.744,1925.08 529.867,1967.2 475.23,2004.95C418.719,2043.99 359.281,2072.7 290.34,2070.59C226.841,2068.66 171.663,2045.03 123.648,1999.57C87.95,1965.77 67.92,1923.34 48.731,1878.48C31.291,1837.72 22.979,1796.04 33.643,1753.76C45.409,1707.12 71.523,1670.22 114.057,1646.55C173.449,1613.49 235.524,1605.9 300.513,1616.7C335.002,1622.42 366.784,1635.81 393.481,1660.35C424.855,1689.18 437.433,1724.5 425.97,1768.23C420.632,1788.59 424.174,1791.67 443.086,1785.59C477.398,1774.56 492.268,1749.69 486.11,1712.03C474.405,1640.45 426.498,1602.9 368.807,1576.72C312.804,1551.3 253.753,1549.59 194.119,1558.66C189.35,1559.38 184.45,1559.25 179.726,1560.18C168.834,1562.32 165.512,1558.84 166.532,1546.41C168.695,1520.09 163.464,1495.51 145.186,1475.69C118.435,1446.69 79.087,1447.79 59.317,1479.91C79.698,1484.28 96.891,1493 109.35,1511.39C119.099,1525.79 123.771,1560 115.779,1575.07C113.322,1579.71 109.25,1579.81 105.685,1581.61C73.945,1597.58 42.772,1614.47 17.201,1640.83C14.477,1643.63 12.157,1648.8 7.271,1646.44C2.635,1644.2 4.327,1638.81 3.914,1634.72C-0.706,1588.85 -1.318,1542.99 2.516,1496.95C8.412,1426.16 35.321,1398.17 111.599,1388.66C169.804,1381.4 222.867,1402.78 273.575,1430.91C307.636,1449.8 341.519,1469.05 375.382,1488.35C466.286,1540.13 562.382,1548.73 662.197,1527.63C708.792,1517.79 755.814,1510.89 803.13,1506.3C809.312,1505.7 815.593,1505.73 821.237,1499.84C776.653,1482.38 730.583,1480.65 684.589,1481.31C628.796,1482.11 573.024,1487.33 517.474,1476.9C475.077,1468.94 435.428,1453.52 396.904,1433.13C344.098,1405.19 293.59,1372.6 237.717,1350.75C162.3,1321.25 88.595,1319.71 11.661,1357.88C19.8,1286.97 25.024,1218.91 56.029,1153.69C63.352,1165.59 69.057,1175.27 75.151,1184.68C113.595,1244 170.448,1276.23 231.74,1299.81C332.267,1338.49 435.567,1361.63 543.573,1353.25C594.494,1349.29 644.432,1338.43 694.844,1330.91C746.044,1323.27 797.317,1316.58 849.201,1318.05C852.439,1318.15 855.699,1317.38 862.027,1316.66C849.558,1302.35 835.17,1298.52 821.401,1294.67C764.599,1278.81 706.479,1275.97 648.982,1285.49C531.444,1304.95 415.526,1302.68 301.317,1265.38C223.006,1239.8 151.132,1203.31 107.734,1124.05C93.452,1097.97 91.912,1068.76 92.651,1039.07C93.775,993.886 113.956,955.359 129.445,915.216C147.37,868.761 167.22,823.309 201.474,782.602C233.447,863.955 297.637,904.095 373.724,932.64C359.591,944.293 353.204,958.8 349.305,974.695C342.864,1000.96 352.38,1025.24 372.122,1041.86C390.824,1057.61 412.716,1066.36 433.36,1077.86C455.94,1090.45 461.454,1129 443.253,1147.95C440.466,1150.85 437.502,1151.77 434.07,1151.62C378.989,1149.18 327.387,1135.18 286.954,1093.16C256.325,1061.33 246.573,1021.08 255.146,976.256C257.69,962.954 260.068,948.838 245.329,942.157C230.186,935.293 218.782,943.262 210.168,956.589C194.423,980.951 191.54,1008.24 195.956,1036.32C207.09,1107.1 250.464,1149.07 308.947,1178.35C373.058,1210.45 441.393,1215.82 510.47,1216.89C580.248,1217.97 649.286,1226.38 718.166,1237.3C727.946,1238.85 743.338,1244.55 746.537,1235.09C751.164,1221.4 734.503,1218.12 725.556,1213.4C662.937,1180.44 595.797,1165.36 526.543,1160.72C509.871,1159.6 503.746,1156.48 508.807,1137.37C520.963,1091.48 499.467,1060.9 465.245,1036.89C452.454,1027.92 437.624,1023.89 424.087,1016.83C410.808,1009.91 401.105,999.572 404.993,982.167C408.933,964.526 419.139,949.522 436.64,949.902C545.841,952.271 655.107,954.807 745.729,1034.82C781.511,1066.41 818.816,1096.14 856.304,1125.46C876.509,1141.27 898.566,1154.41 921.522,1167.21C914.663,1144.77 902.49,1125.68 888.214,1108.78C881.472,1100.79 874.249,1093.03 867.681,1084.73C832.316,1040.01 794,998.999 747.659,966.399C687.994,924.427 621.817,905.155 551.776,897.451C490.243,890.684 427.825,890.549 368.86,866.118C336.888,852.87 308.183,834.487 286.054,807.02C246.377,757.775 243.47,704.873 275.336,649.315C298.38,609.14 331.042,577.5 360.166,542.724C363.465,538.784 367.266,534.724 372.396,536.214C380.071,538.443 376.717,545.932 376.871,551.081C378.554,607.267 392.535,659.731 424.394,704.74C460.094,755.173 508.361,790.125 561.512,817.206C626.575,850.356 696.85,871.412 759.758,909.124C793.572,929.395 825.755,953.568 854.342,982.544C880.987,1009.55 909.42,1034.58 939.143,1058.77C927.186,1023.1 908.92,991.645 885.691,963.563C881.792,958.848 876.895,954.542 873.105,949.481C825.84,886.37 761.482,848.915 693.796,817.331C622.738,784.173 548.493,756.422 493.257,695.406C434.412,630.402 419.606,531.584 466.038,450.386C491.183,406.415 527.563,372.998 566.264,342.358C589.899,323.646 611.913,302.951 637.229,286.241C662.303,269.691 686.819,252.371 716.138,237.636C708.439,258.54 701.667,277.574 694.448,296.415C668.327,364.584 665.503,432.61 694.698,500.727C701.809,517.32 707.402,534.672 714.963,551.016C740.046,605.238 781.614,643.945 824.234,682.115C859.965,714.116 897.488,743.572 934.188,774.193C939.892,778.952 944.965,785.655 955.117,784.411C953.579,767.924 939.898,759.512 932.483,747.671C899.716,695.348 854.797,653.952 816.428,606.604C800.191,586.568 788.551,563.253 775.32,541.037C731.835,468.021 719.535,389.48 749.07,309.291C775.892,236.468 816.485,173.1 890.409,142.227C915.823,131.613 939.655,116.671 970.891,108.125C963.539,117.892 959.377,126.012 953.089,131.285C934.785,146.634 923.873,167.768 911.382,187.709C846.154,291.845 835.016,403.765 876.161,519.305C894.657,571.242 925.794,616.996 961.62,659.127C1032.71,742.728 1093.05,834.395 1134.65,938.794C1136.9,944.425 1138.53,953.369 1146.58,950.805C1153.14,948.713 1150.02,940.421 1149.61,935.487C1142.51,850.978 1121.07,772.723 1071.1,703.484C1028.64,644.652 978.312,592.037 943.671,527.029C926.183,494.211 917.086,457.985 914.241,420.537C910.21,367.481 913.132,314.182 935.458,266.105C956.44,220.925 980.397,176.7 1017.65,142.821C1031.08,130.607 1042.39,115.776 1056.35,100.272C1065.19,122.88 1064.32,144.118 1060.92,165.35C1055.59,198.671 1042.5,229.517 1032.85,261.469C1024.7,288.446 1016.73,315.625 1011.05,343.262C1004.95,372.971 1018.26,400.248 1025.48,427.891C1042.21,491.854 1081.8,539.87 1125.37,584.855C1130.38,582.001 1128.42,578.321 1127.45,575.308C1110.86,523.671 1091.14,473.233 1073.87,421.918C1062.47,388.002 1062.8,350.987 1074.47,316.42C1089.5,271.907 1107.46,228.457 1116.75,181.971C1123.86,146.405 1123.47,110.634 1114.43,75.596C1110.74,61.277 1112.72,54.795 1127.1,51.148C1171.83,39.808 1216.4,27.894 1264.47,21.823C1260.55,31.089 1256.72,38.443 1254.25,46.279C1241.46,86.83 1260.11,130.001 1300.44,154.011C1334.08,174.029 1376.78,166.062 1401.95,135.073C1412.64,121.912 1414.64,93.581 1405.9,79.04C1394.94,60.798 1366.84,50.315 1347.38,57.931C1335.12,62.73 1323.43,68.932 1318.29,84.366C1310.09,64.329 1315.85,45.172 1332.1,34.546C1371.1,9.039 1418.83,18.762 1450.21,54.279C1481.83,90.069 1482.14,137.611 1459.17,173.269C1440.68,201.982 1419.94,226.339 1393.77,247.636C1353.57,280.358 1314.66,314.644 1280.91,355.932C1246.15,398.466 1226.32,447.135 1207.8,498.499C1184.46,563.259 1183.38,629.537 1198.16,693.79C1211.84,753.23 1229.12,813.084 1259.15,866.861C1264.92,877.196 1272.52,886.384 1281.42,899.188C1284.33,870.99 1279.35,846.433 1272.73,824.147C1257.5,772.861 1254.93,719.948 1248.43,667.494C1242.42,619.017 1245.64,570.457 1258.89,524.239C1282.92,440.401 1330.92,373.426 1397.69,321.695C1453.07,278.79 1506.06,232.955 1528.56,160.947C1538.46,129.254 1539.83,95.871 1523.97,63.565C1514.14,43.552 1505.69,22.956 1487.7,2.899C1546.16,-1.799 1600.45,1.003 1656.14,7.306C1629.46,48.306 1619.82,93.751 1614.1,140.003C1605.25,211.624 1568.13,264.979 1522.66,315.645C1484.89,357.728 1444.71,397.312 1410.49,443.453C1369.88,498.22 1349.36,559.093 1338.95,626.498C1325.23,715.368 1353.78,793.33 1389.13,870.239C1389.52,871.078 1391.31,871.193 1395.24,872.765C1392.82,840.588 1390.53,809.702 1388.18,778.821C1384.57,731.361 1381.51,683.317 1391.93,636.95C1408.11,564.985 1434.34,497.811 1485.53,443.836C1524.35,402.911 1560.61,359.255 1597.83,316.635C1602.95,310.768 1607.16,303.977 1611.54,297.421C1645.77,246.159 1667.24,189.482 1678.55,127.795C1685.6,89.345 1700.04,54.474 1731.74,29.851C1740.74,22.859 1747.94,17.949 1759.27,20.409C1793.64,27.875 1827.89,36.712 1862.63,41.313C1901.22,46.425 1914.42,76.077 1923.3,108.051C1942.6,177.584 1919.51,238.627 1882.94,294.919C1852.94,341.1 1813.59,378.65 1777.25,419.086C1730.46,471.157 1687.33,525.901 1659.76,594.126C1624.45,681.496 1622.92,768.914 1643.38,858.813C1645.2,866.797 1644.02,881.816 1655.4,880.573C1662.64,879.782 1661.32,865.852 1662.23,857.507C1669.46,790.748 1677.53,724.086 1695.85,659.538C1713.75,596.493 1748.14,544.026 1788.8,494.658C1828.15,446.88 1873.26,405.086 1910.61,355.147C1957.97,291.813 1992.48,224.605 1989.8,141.211C1989.46,130.589 1988.29,119.998 1987.44,108.471C1990.97,109.167 1993.3,108.93 1994.75,110.009C2060.05,158.69 2086.48,265.198 2048.21,339.405C2029.04,376.558 2006.6,411.794 1975.65,441.358C1923.33,491.336 1870.09,541.249 1832.85,606.183C1817.74,632.531 1807.6,661.241 1798.25,690.349C1777.89,753.706 1766.07,818.196 1774.08,885.388C1774.93,892.52 1770.4,904.61 1780.35,905.767C1791.38,907.049 1790.24,893.646 1792.44,886.184C1806.59,838.12 1818.44,789.231 1834.1,741.741C1863.64,652.119 1914.65,578.81 1982.73,516.217C2030.09,472.665 2073.63,424.562 2101.33,361.369C2127.05,302.696 2130.81,245.036 2113.51,185.593C2106.24,160.603 2090.14,138.496 2077.38,113.775C2088.3,112.039 2097.43,118.411 2105.56,122.609C2149.63,145.367 2198.15,158.941 2233.17,200.087C2260.16,231.796 2272.61,288.7 2254.44,323.553C2240.07,351.104 2216.79,356.095 2195.01,334.878C2185.8,325.918 2178.26,330.926 2170.58,334.618C2159.46,339.962 2154.34,349.857 2155.8,363.099C2157.96,382.618 2177.98,401.977 2202.44,406.124C2231.08,410.978 2256.96,404.042 2279.31,383.344C2319.46,346.168 2331.89,299.955 2318.98,245.004C2362.59,261.288 2384.46,303.566 2373.49,357.451C2364.07,403.736 2337.74,439.499 2300.52,466.563C2242.44,508.798 2173.31,520.854 2109.14,546.335C2081.63,557.261 2056.11,572.178 2033.73,590.491C1993.49,623.424 1958.52,662.085 1935.24,711.939C1900.01,787.355 1888.47,868.257 1880.26,950.315C1880.07,952.212 1881.16,954.252 1882.39,959.19C1891.86,950.119 1895.32,939.299 1900.55,929.708C1926.42,882.256 1940.24,829.246 1962.08,780.029C2005.48,682.185 2074.43,615.105 2174.69,586.049C2243.12,566.218 2310.74,543.547 2365.77,492.494C2384.77,474.875 2399.94,453.662 2409.86,429.615C2421.8,400.681 2436.78,372.257 2436.21,338.961C2436.04,328.85 2439.33,322.189 2449.5,330.73C2505.41,377.685 2563.23,422.389 2609.49,480.875C2611.98,484.019 2613.7,487.843 2617.36,494.02C2576.6,492.888 2539.78,499.004 2503.29,510.286C2467.73,521.279 2435.48,539.203 2405.31,560.44C2347.97,600.795 2288.49,636.722 2227.83,671.147C2160.4,709.419 2099.07,756.001 2051.97,822.917C2023.6,863.223 2002.71,906.248 1983.48,951.347C1974.82,971.656 1964.42,990.856 1960.79,1015.89C1975.09,1005.34 1985.77,994.826 1993.83,981.318C2018.15,940.547 2048.88,905.064 2078.34,868.68C2138.13,794.834 2214.43,744.888 2296.69,704.244C2337.94,683.863 2376.93,659.703 2413.65,631.087C2472.45,585.279 2536.11,552.323 2611.54,555.355C2656.69,557.17 2696.5,572.826 2725.98,611.141C2746.59,637.936 2772.9,660.133 2786.93,695.577C2768.33,689.479 2751.6,683.915 2734.82,678.508C2655.49,652.941 2580.15,663.591 2506.74,703.463C2476.55,719.859 2449.26,740.677 2421.33,760.2C2363.8,800.407 2298.98,819.523 2234.53,840.386C2155.21,866.067 2090.86,910.636 2050.95,991.291C2037.32,1018.84 2023.26,1045.37 2014.16,1081.87C2033.29,1062.66 2048.99,1048.7 2062.68,1032.8C2099.42,990.127 2138,950.387 2187.4,923.731C2217.22,907.641 2248.73,897.297 2280.78,889.131C2355.28,870.146 2423.8,839.109 2485.64,790.011C2550.28,738.699 2623.05,711.612 2704.63,730.963C2770.37,746.559 2829.26,776.3 2870.64,844.977C2832.42,826.079 2797.72,813.795 2761.39,808.289C2699.03,798.841 2639.54,808.721 2582.54,838.111C2543.34,858.322 2508.12,884.974 2472.87,911.319C2419.81,950.971 2361.16,976.615 2299.9,997.195C2217.39,1024.91 2149.26,1071.66 2114.39,1160.08C2110.99,1168.71 2095.32,1176.77 2104.21,1184.11C2112.18,1190.7 2121.23,1175.89 2128.11,1168.64C2192.71,1100.61 2273.87,1065.52 2359.05,1039.3C2420.77,1020.3 2475.6,988.331 2526.61,947.805C2560.8,920.646 2596.19,895.658 2637.01,880.536C2717.37,850.761 2792.57,862.15 2863.99,910.324C2920.52,948.46 2949.74,1005.56 2969.34,1073.92C2931.91,1049.88 2899.83,1023.09 2861.18,1007.37C2759.05,965.842 2662.36,973.218 2568.72,1035.3C2541.82,1053.14 2517.75,1074.62 2491.59,1093.3C2432.52,1135.48 2365.05,1148.61 2297.99,1165.03C2247.01,1177.51 2199.73,1199.52 2158.02,1235.11C2184.11,1230.64 2210.16,1225.91 2236.3,1221.74C2298.16,1211.86 2361.25,1211.91 2422.26,1194.86C2454.56,1185.83 2484.59,1171.47 2512.49,1152.81C2537.41,1136.14 2560.64,1116.61 2584.37,1097.99C2669.13,1031.49 2759.31,1024.85 2855.29,1067.89C2890.33,1083.61 2917.83,1109.4 2945.91,1134.78C2953.42,1141.57 2961.06,1149.84 2963.6,1163.68C2931.35,1149.17 2902.32,1130.31 2868.84,1122.32C2784.81,1102.27 2705.71,1108.41 2630.94,1159.52C2600.66,1180.22 2576.09,1207.43 2546.82,1229.17C2504.82,1260.36 2459.91,1278.41 2409.35,1283.29C2359.9,1288.07 2310.02,1284.27 2260.73,1291.86C2234.33,1295.93 2207.72,1299.42 2183.93,1313.89C2184.66,1315.63 2185.09,1317.74 2185.62,1317.77C2266.73,1322.34 2347.25,1337.9 2428.73,1334.61C2494.89,1331.94 2552.88,1307.34 2602.22,1258.77C2647.39,1214.3 2696.4,1175.78 2761.48,1170.3C2820.27,1165.34 2874.13,1178.35 2925.22,1210.96C2964.9,1236.28 2989.71,1273 3010.51,1314.48C3013.03,1319.5 3013.51,1325.68 3014.92,1331.32C3018.34,1344.93 3015.7,1351.9 3000.26,1349.07C2950.47,1339.96 2908.59,1357.35 2876.81,1397.45C2854.06,1426.16 2847.01,1461.11 2856.32,1498.42C2865.16,1533.8 2890.18,1551.77 2920.28,1563.38C2930.75,1567.41 2942.42,1566.56 2952.83,1562.21C2962.52,1558.17 2972.57,1551.86 2972.42,1539.21C2972.25,1525.8 2962.65,1519.18 2951.33,1515.51C2912.05,1502.77 2899.41,1462.16 2924.38,1428.92C2950.33,1394.37 3007.9,1400.77 3028.09,1440.45C3048.04,1479.65 3040.8,1551.06 3011.22,1582.66C2987.24,1608.28 2963.45,1633.71 2931.96,1651.13C2859.16,1691.39 2785.36,1692.48 2710,1664.46C2673.71,1650.97 2638.61,1633.87 2602.97,1618.43C2590.82,1613.17 2578.31,1609.47 2564.86,1608.74C2633.48,1724.99 2858.68,1816.25 3034.45,1649.89C3027.44,1716.62 2994.46,1762.53 2941.36,1792.58C2857.86,1839.84 2775.94,1827.82 2694.08,1784.86C2662.28,1768.17 2634.24,1746.16 2606.1,1724.47C2564.97,1692.77 2524.32,1660.44 2480.41,1633.17C2397.92,1581.94 2309.12,1573.1 2216.66,1590.43C2214.83,1590.77 2213.2,1592.32 2209.2,1594.6C2225.9,1604.28 2243.16,1603.22 2259.04,1606.24C2340.06,1621.62 2415,1651.41 2482.76,1702.1C2524.26,1733.15 2564.58,1765.81 2605.69,1797.35C2692.11,1863.64 2787.09,1897.89 2894.89,1874.52C2934.28,1865.98 2970.35,1848.24 3005.13,1815.41C2993.76,1864.64 2977.17,1900.62 2939.7,1925.92C2861.65,1978.62 2777.64,1976.4 2692.08,1960.83C2605.04,1944.99 2524.96,1908.4 2447.34,1864.57C2383.69,1828.64 2320.07,1792.04 2248.08,1776.96C2225.97,1772.33 2203.96,1770.78 2180.28,1776.59C2196.22,1785.62 2211.78,1795.52 2228.16,1803.52C2284.44,1831.01 2337.58,1864.55 2390.54,1898.27C2504.72,1970.96 2625.07,2023.71 2760,2030.54C2829.1,2034.03 2895.76,2022.43 2959.78,1989.43C2927,2079.97 2893.28,2169.36 2839.4,2250.04C2827.45,2234.49 2818.64,2218.17 2808.17,2203.28C2761.57,2137.01 2694.58,2111.3 2623.13,2093.87C2558.79,2078.17 2493.28,2067.91 2431.04,2042.82C2400.6,2030.54 2372.48,2013.91 2344.73,1996.67C2293.84,1965.04 2247.64,1925.1 2192.8,1900.37C2177.19,1893.34 2161.36,1887.78 2142.77,1886.99C2153.69,1910.46 2173.82,1921.59 2189.15,1937.59C2231.32,1981.59 2276.72,2021.37 2326.79,2055.08C2397.83,2102.91 2476.59,2127.14 2558.63,2141.78C2602.78,2149.66 2647.05,2157.97 2687.94,2178.01C2722.84,2195.12 2751.53,2221.87 2770.96,2256.98C2797.78,2305.43 2791.43,2352.76 2753.41,2392.66C2743.59,2402.97 2738.47,2417.05 2725.8,2426.19C2718.95,2417.6 2722.14,2406.73 2719.92,2397.52C2698.14,2307.11 2636.75,2262.22 2557.36,2238.93C2493.08,2220.08 2425.58,2215.22 2362.89,2188.98C2331.32,2175.77 2301.34,2159.51 2275.44,2136.45C2247.09,2111.2 2221.01,2083.35 2195.26,2054.94C2162.38,2018.67 2129.4,1981.08 2081,1960.79C2083.08,1975.82 2090.8,1985.6 2098.18,1993.83C2117.27,2015.17 2130.5,2040.68 2145.54,2064.78C2218.09,2181.06 2317.94,2251.95 2448.53,2273.59C2475.7,2278.1 2502.6,2284.69 2529.45,2291.14C2577.04,2302.58 2619.2,2324.32 2645.69,2369.95C2678.13,2425.82 2672.42,2517.94 2607.03,2560.17C2608.77,2480.97 2598.55,2408.91 2510.89,2376.61C2519.78,2401.75 2527.56,2422.21 2534.28,2443.04C2558.2,2517.22 2551.44,2588.61 2506.65,2650.96C2466.62,2706.69 2414.83,2749.04 2349.98,2769.52C2299.1,2785.6 2258.75,2768.11 2232.37,2720.13C2219.81,2697.28 2239.19,2658.11 2266.18,2652.53C2274.25,2650.87 2282.68,2651.25 2290.86,2650.05C2299.45,2648.79 2309.9,2649.8 2312.32,2637.35C2314.67,2625.23 2312.65,2613.74 2303.23,2605.47C2279.95,2585.04 2253.94,2581.74 2225.78,2592.3C2189.72,2605.82 2154.99,2678.19 2168.73,2719.09C2184.22,2765.23 2209.04,2805.09 2255.7,2823.28C2261.46,2825.53 2266.9,2828.72 2274.6,2832.52C2220.74,2869.5 2164.46,2897.38 2107.21,2923.18C2091.42,2930.29 2075.16,2936.56 2058.66,2941.54C2022.77,2952.37 1994.19,2931.42 1989.41,2892.06C1985.88,2863 1995.53,2837.64 2007.79,2812.61C2022.49,2782.62 2045.35,2759.09 2063.32,2731.68C2142.46,2610.93 2153.4,2480 2110.8,2343.74C2096.32,2297.41 2081.62,2249.04 2052.79,2209.45C2022.55,2167.93 1996.68,2121.46 1948.25,2092.04C1953.04,2115.2 1962.12,2133.22 1972.09,2149.59C2000.7,2196.55 2016.08,2249.62 2037.96,2299.65C2058.62,2346.89 2067.39,2396.09 2073.8,2446.57C2080.84,2501.94 2075.4,2556.54 2057.59,2608.46C2039.27,2661.86 2008.13,2707.99 1975.53,2753.13C1935.18,2809.02 1906.25,2884.51 1946.36,2960.92C1953.46,2974.43 1950.08,2976.57 1937.66,2980.43C1872.14,3000.81 1803.67,2947.26 1821.95,2848.13C1826.95,2821.04 1836.65,2796.19 1853.5,2773.53C1872.15,2748.44 1884.03,2717.65 1902.95,2692.83C1940.44,2643.64 1961.26,2585.57 1979.85,2527.77C2001.05,2461.87 2001.68,2391.78 1980.8,2324.99C1968.64,2286.07 1953.79,2246.92 1930.18,2213.35C1915.3,2192.19 1898.22,2172.75 1880.1,2153.89C1885.18,2196.81 1897.62,2237.24 1912.87,2275.73C1929.78,2318.4 1936.02,2362.31 1938.32,2407.16C1940.27,2445.17 1937.36,2484.06 1923.49,2519.27C1901.71,2574.57 1881.35,2630.69 1844.83,2678.58C1823.36,2706.74 1809.05,2740.89 1789.7,2771.03C1762.25,2813.76 1756.06,2860.29 1761.49,2910.35C1765.25,2945.01 1783.69,2970.55 1804.08,2995.39C1808.02,3000.18 1812.11,3004.83 1816.43,3009.89C1762.22,3031.61 1693.43,2991.52 1677.47,2921.73C1661.46,2851.79 1683.23,2791.68 1721.7,2735.53C1776.59,2655.43 1835.83,2577.04 1838.99,2471.18C1841.44,2388.91 1824.89,2312.1 1778.81,2244.11C1774.01,2237.03 1770.52,2228.96 1766.39,2221.36C1762.74,2214.64 1759.06,2207.93 1753.47,2201.93C1750.08,2224.02 1756.17,2244.54 1759.99,2265.21C1768.67,2312.12 1782.86,2358.54 1785.97,2405.82C1791.67,2492.66 1766.84,2571.46 1716.14,2641.09C1695.98,2668.78 1680.72,2700.47 1660.51,2728.12C1628.79,2771.52 1615.09,2820.74 1613.8,2874.24C1612.41,2931.91 1626.17,2983.94 1670.12,3022.75C1673.15,3025.43 1675.45,3029.05 1679.73,3034.23C1646.37,3042.16 1614.19,3042 1582.48,3044.11C1543.34,3046.71 1503.87,3047.47 1464.85,3040.77C1415.76,3032.35 1377.01,3007.97 1347.84,2963.37C1318.33,2918.25 1314.35,2869.9 1330.7,2822.1C1345.69,2778.32 1367.82,2736.81 1400.35,2702.94C1414.51,2688.2 1424.71,2669.29 1438.3,2653.84C1485.08,2600.64 1516.76,2537.79 1534.93,2468.96C1552.44,2402.6 1547,2334.32 1530.63,2267.75C1527.04,2253.18 1518.53,2239.97 1509.98,2221.03C1503.59,2248.71 1504.37,2271.26 1503.02,2293.41C1499.46,2351.71 1499.74,2411.06 1480.02,2466.25C1460.37,2521.23 1431.13,2570.56 1395.21,2616.57C1348.31,2676.64 1298.41,2734.19 1274.07,2812.16C1249.81,2889.87 1273.76,2952.27 1310.82,3014.61C1313.68,3019.4 1317.23,3023.73 1323.41,3032.43Z" style="fill-rule:nonzero;"/>
    </g>
</svg>
