<?xml version="1.0" encoding="UTF-8" standalone="no"?>
<!DOCTYPE svg PUBLIC "-//W3C//DTD SVG 1.1//EN" "http://www.w3.org/Graphics/SVG/1.1/DTD/svg11.dtd">
<svg width="100%" height="100%" viewBox="0 0 2019 2019" version="1.1" xmlns="http://www.w3.org/2000/svg" xmlns:xlink="http://www.w3.org/1999/xlink" xml:space="preserve" xmlns:serif="http://www.serif.com/" style="fill-rule:evenodd;clip-rule:evenodd;stroke-linejoin:round;stroke-miterlimit:2;">
    <g transform="matrix(4.16667,0,0,4.16667,-6675.08,-5460.33)">
        <path d="M1963.96,1552.74C1963.96,1618.84 1910.38,1672.43 1844.28,1672.43C1778.18,1672.43 1724.6,1618.84 1724.6,1552.74C1724.6,1486.64 1778.18,1433.06 1844.28,1433.06C1910.38,1433.06 1963.96,1486.64 1963.96,1552.74Z" style="fill:rgb(3,4,4);fill-rule:nonzero;"/>
    </g>
    <g transform="matrix(4.16667,0,0,4.16667,-6675.08,-5460.33)">
        <path d="M1836.25,1687.51C1857.29,1712.58 1859.19,1740.77 1851.4,1768.13C1848.4,1777.08 1844.25,1786.04 1836.25,1795L1833.97,1795C1833.53,1786.04 1833.27,1777.08 1833.22,1768.13C1832.86,1754.73 1832.86,1727.77 1833.22,1714.38C1833.26,1705.42 1833.53,1696.47 1833.97,1687.51L1836.25,1687.51Z" style="fill:rgb(3,4,4);fill-rule:nonzero;"/>
    </g>
    <g transform="matrix(4.16667,0,0,4.16667,-6675.08,-5460.33)">
        <path d="M1769.94,1665.44C1775.63,1697.67 1763.18,1723.03 1742.75,1742.83C1735.68,1749.09 1727.6,1754.77 1716.2,1758.53L1714.23,1757.39C1718.32,1749.41 1722.57,1741.52 1727.01,1733.74C1733.4,1721.96 1746.87,1698.61 1753.88,1687.2C1758.4,1679.46 1763.11,1671.84 1767.97,1664.3L1769.94,1665.44Z" style="fill:rgb(3,4,4);fill-rule:nonzero;"/>
    </g>
    <g transform="matrix(4.16667,0,0,4.16667,-6675.08,-5460.33)">
        <path d="M1723.55,1613.17C1712.36,1643.92 1688.9,1659.67 1661.31,1666.6C1652.05,1668.48 1642.22,1669.36 1630.46,1666.91L1629.32,1664.94C1636.86,1660.08 1644.48,1655.37 1652.22,1650.86C1663.64,1643.84 1686.98,1630.37 1698.76,1623.98C1706.54,1619.54 1714.43,1615.29 1722.41,1611.2L1723.55,1613.17Z" style="fill:rgb(3,4,4);fill-rule:nonzero;"/>
    </g>
    <g transform="matrix(4.16667,0,0,4.16667,-6675.08,-5460.33)">
        <path d="M1709.51,1544.7C1684.44,1565.74 1656.25,1567.65 1628.89,1559.85C1619.94,1556.85 1610.98,1552.7 1602.02,1544.7L1602.02,1542.43C1610.98,1541.99 1619.94,1541.72 1628.89,1541.68C1642.29,1541.31 1669.25,1541.31 1682.64,1541.67C1691.6,1541.72 1700.55,1541.98 1709.51,1542.43L1709.51,1544.7Z" style="fill:rgb(3,4,4);fill-rule:nonzero;"/>
    </g>
    <g transform="matrix(4.16667,0,0,4.16667,-6675.08,-5460.33)">
        <path d="M1731.58,1478.4C1699.35,1484.09 1673.99,1471.64 1654.19,1451.21C1647.93,1444.14 1642.25,1436.06 1638.49,1424.66L1639.63,1422.69C1647.61,1426.78 1655.5,1431.03 1663.28,1435.47C1675.06,1441.86 1698.41,1455.33 1709.83,1462.34C1717.56,1466.86 1725.19,1471.57 1732.72,1476.43L1731.58,1478.4Z" style="fill:rgb(3,4,4);fill-rule:nonzero;"/>
    </g>
    <g transform="matrix(4.16667,0,0,4.16667,-6675.08,-5460.33)">
        <path d="M1783.85,1432.01C1753.1,1420.82 1737.35,1397.36 1730.43,1369.77C1728.54,1360.51 1727.66,1350.68 1730.11,1338.92L1732.08,1337.79C1736.94,1345.32 1741.65,1352.95 1746.17,1360.68C1753.18,1372.1 1766.66,1395.45 1773.04,1407.23C1777.48,1415.01 1781.73,1422.9 1785.82,1430.88L1783.85,1432.01Z" style="fill:rgb(3,4,4);fill-rule:nonzero;"/>
    </g>
    <g transform="matrix(4.16667,0,0,4.16667,-6675.08,-5460.33)">
        <path d="M1852.31,1417.97C1831.28,1392.91 1829.37,1364.71 1837.17,1337.36C1840.16,1328.4 1844.31,1319.44 1852.31,1310.48L1854.59,1310.48C1855.03,1319.44 1855.3,1328.4 1855.34,1337.36C1855.7,1350.75 1855.7,1377.71 1855.34,1391.1C1855.3,1400.06 1855.03,1409.02 1854.59,1417.97L1852.31,1417.97Z" style="fill:rgb(3,4,4);fill-rule:nonzero;"/>
    </g>
    <g transform="matrix(4.16667,0,0,4.16667,-6675.08,-5460.33)">
        <path d="M1918.62,1440.04C1912.94,1407.82 1925.38,1382.45 1945.81,1362.65C1952.89,1356.4 1960.96,1350.71 1972.37,1346.96L1974.33,1348.09C1970.24,1356.07 1965.99,1363.96 1961.55,1371.74C1955.17,1383.52 1941.69,1406.87 1934.68,1418.29C1930.16,1426.02 1925.45,1433.65 1920.59,1441.18L1918.62,1440.04Z" style="fill:rgb(3,4,4);fill-rule:nonzero;"/>
    </g>
    <g transform="matrix(4.16667,0,0,4.16667,-6675.08,-5460.33)">
        <path d="M1965.01,1492.31C1976.2,1461.56 1999.66,1445.81 2027.25,1438.89C2036.51,1437 2046.34,1436.12 2058.1,1438.57L2059.24,1440.54C2051.7,1445.4 2044.08,1450.11 2036.34,1454.63C2024.92,1461.64 2001.58,1475.12 1989.8,1481.5C1982.02,1485.94 1974.13,1490.19 1966.15,1494.28L1965.01,1492.31Z" style="fill:rgb(3,4,4);fill-rule:nonzero;"/>
    </g>
    <g transform="matrix(4.16667,0,0,4.16667,-6675.08,-5460.33)">
        <path d="M1979.04,1560.77C2004.11,1539.74 2032.3,1537.83 2059.66,1545.63C2068.62,1548.62 2077.58,1552.78 2086.53,1560.77L2086.53,1563.05C2077.58,1563.49 2068.62,1563.76 2059.66,1563.8C2046.26,1564.16 2019.31,1564.16 2005.92,1563.8C1996.96,1563.76 1988,1563.49 1979.04,1563.05L1979.04,1560.77Z" style="fill:rgb(3,4,4);fill-rule:nonzero;"/>
    </g>
    <g transform="matrix(4.16667,0,0,4.16667,-6675.08,-5460.33)">
        <path d="M1956.97,1627.08C1989.2,1621.4 2014.57,1633.84 2034.36,1654.27C2040.62,1661.35 2046.3,1669.42 2050.06,1680.83L2048.92,1682.8C2040.95,1678.7 2033.05,1674.45 2025.28,1670.01C2013.49,1663.63 1990.15,1650.15 1978.73,1643.14C1970.99,1638.62 1963.37,1633.91 1955.83,1629.05L1956.97,1627.08Z" style="fill:rgb(3,4,4);fill-rule:nonzero;"/>
    </g>
    <g transform="matrix(4.16667,0,0,4.16667,-6675.08,-5460.33)">
        <path d="M1904.7,1673.47C1935.46,1684.66 1951.2,1708.12 1958.13,1735.71C1960.01,1744.97 1960.9,1754.8 1958.45,1766.56L1956.48,1767.7C1951.62,1760.16 1946.91,1752.54 1942.39,1744.8C1935.38,1733.38 1921.9,1710.04 1915.52,1698.26C1911.07,1690.48 1906.83,1682.59 1902.73,1674.61L1904.7,1673.47Z" style="fill:rgb(3,4,4);fill-rule:nonzero;"/>
    </g>
    <g transform="matrix(4.16667,0,0,4.16667,-6675.08,-5460.33)">
        <path d="M1716.04,1510.54C1697.83,1527.49 1682.91,1525.52 1670.89,1514.28C1667.07,1510.17 1663.55,1504.94 1661,1496L1661.58,1493.8C1666.28,1494.59 1670.94,1495.54 1675.54,1496.71C1682.49,1498.17 1696.29,1501.82 1703.05,1503.98C1707.63,1505.23 1712.15,1506.7 1716.62,1508.34L1716.04,1510.54Z" style="fill:rgb(3,4,4);fill-rule:nonzero;"/>
    </g>
    <g transform="matrix(4.16667,0,0,4.16667,-6675.08,-5460.33)">
        <path d="M1754.32,1452.08C1730.07,1457.65 1718.14,1448.49 1713.35,1432.75C1712.1,1427.28 1711.66,1420.99 1713.93,1411.97L1715.53,1410.36C1719.2,1413.39 1722.76,1416.54 1726.16,1419.85C1731.45,1424.59 1741.57,1434.65 1746.35,1439.9C1749.69,1443.28 1752.87,1446.81 1755.92,1450.47L1754.32,1452.08Z" style="fill:rgb(3,4,4);fill-rule:nonzero;"/>
    </g>
    <g transform="matrix(4.16667,0,0,4.16667,-6675.08,-5460.33)">
        <path d="M1816.7,1420.58C1792.92,1413.29 1787.16,1399.38 1790.89,1383.36C1792.54,1377.99 1795.3,1372.33 1801.78,1365.65L1803.97,1365.06C1805.64,1369.52 1807.14,1374.02 1808.43,1378.59C1810.64,1385.34 1814.38,1399.12 1815.89,1406.06C1817.09,1410.64 1818.08,1415.29 1818.89,1419.99L1816.7,1420.58Z" style="fill:rgb(3,4,4);fill-rule:nonzero;"/>
    </g>
    <g transform="matrix(4.16667,0,0,4.16667,-6675.08,-5460.33)">
        <path d="M1886.48,1424.5C1869.53,1406.29 1871.5,1391.37 1882.74,1379.35C1886.85,1375.53 1892.07,1372.01 1901.02,1369.47L1903.22,1370.05C1902.43,1374.74 1901.48,1379.4 1900.31,1384C1898.85,1390.95 1895.2,1404.75 1893.04,1411.51C1891.79,1416.09 1890.32,1420.61 1888.67,1425.08L1886.48,1424.5Z" style="fill:rgb(3,4,4);fill-rule:nonzero;"/>
    </g>
    <g transform="matrix(4.16667,0,0,4.16667,-6675.08,-5460.33)">
        <path d="M1944.94,1462.78C1939.37,1438.53 1948.54,1426.6 1964.28,1421.81C1969.75,1420.56 1976.04,1420.12 1985.05,1422.39L1986.67,1423.99C1983.64,1427.67 1980.49,1431.22 1977.18,1434.62C1972.43,1439.91 1962.37,1450.04 1957.12,1454.81C1953.75,1458.15 1950.22,1461.33 1946.56,1464.38L1944.94,1462.78Z" style="fill:rgb(3,4,4);fill-rule:nonzero;"/>
    </g>
    <g transform="matrix(4.16667,0,0,4.16667,-6675.08,-5460.33)">
        <path d="M1976.44,1525.16C1983.74,1501.38 1997.64,1495.63 2013.67,1499.35C2019.03,1501 2024.7,1503.76 2031.37,1510.24L2031.97,1512.43C2027.51,1514.1 2023,1515.61 2018.43,1516.89C2011.68,1519.1 1997.91,1522.84 1990.97,1524.35C1986.38,1525.56 1981.73,1526.54 1977.04,1527.36L1976.44,1525.16Z" style="fill:rgb(3,4,4);fill-rule:nonzero;"/>
    </g>
    <g transform="matrix(4.16667,0,0,4.16667,-6675.08,-5460.33)">
        <path d="M1972.52,1594.94C1990.73,1577.99 2005.65,1579.96 2017.67,1591.2C2021.49,1595.31 2025.01,1600.53 2027.56,1609.48L2026.98,1611.68C2022.28,1610.89 2017.62,1609.94 2013.03,1608.77C2006.07,1607.31 1992.27,1603.66 1985.51,1601.5C1980.93,1600.25 1976.42,1598.78 1971.94,1597.14L1972.52,1594.94Z" style="fill:rgb(3,4,4);fill-rule:nonzero;"/>
    </g>
    <g transform="matrix(4.16667,0,0,4.16667,-6675.08,-5460.33)">
        <path d="M1934.24,1653.4C1958.49,1647.83 1970.43,1657 1975.21,1672.74C1976.46,1678.21 1976.9,1684.5 1974.63,1693.51L1973.03,1695.13C1969.36,1692.1 1965.8,1688.95 1962.4,1685.64C1957.12,1680.89 1946.99,1670.84 1942.21,1665.58C1938.87,1662.21 1935.69,1658.68 1932.64,1655.02L1934.24,1653.4Z" style="fill:rgb(3,4,4);fill-rule:nonzero;"/>
    </g>
    <g transform="matrix(4.16667,0,0,4.16667,-6675.08,-5460.33)">
        <path d="M1871.86,1684.9C1895.64,1692.2 1901.39,1706.1 1897.67,1722.13C1896.02,1727.49 1893.26,1733.16 1886.78,1739.83L1884.59,1740.43C1882.92,1735.97 1881.41,1731.46 1880.13,1726.89C1877.92,1720.14 1874.18,1706.37 1872.66,1699.43C1871.46,1694.84 1870.48,1690.19 1869.66,1685.5L1871.86,1684.9Z" style="fill:rgb(3,4,4);fill-rule:nonzero;"/>
    </g>
    <g transform="matrix(4.16667,0,0,4.16667,-6675.08,-5460.33)">
        <path d="M1802.09,1680.99C1819.03,1699.2 1817.06,1714.12 1805.82,1726.13C1801.72,1729.95 1796.49,1733.48 1787.54,1736.02L1785.35,1735.44C1786.13,1730.74 1787.08,1726.09 1788.25,1721.49C1789.72,1714.54 1793.36,1700.74 1795.52,1693.97C1796.78,1689.4 1798.24,1684.88 1799.89,1680.41L1802.09,1680.99Z" style="fill:rgb(3,4,4);fill-rule:nonzero;"/>
    </g>
    <g transform="matrix(4.16667,0,0,4.16667,-6675.08,-5460.33)">
        <path d="M1743.61,1642.71C1749.19,1666.95 1740.02,1678.89 1724.28,1683.68C1718.81,1684.93 1712.52,1685.37 1703.5,1683.1L1701.89,1681.5C1704.92,1677.82 1708.07,1674.27 1711.38,1670.87C1716.13,1665.58 1726.18,1655.45 1731.44,1650.67C1734.81,1647.34 1738.34,1644.16 1742,1641.11L1743.61,1642.71Z" style="fill:rgb(3,4,4);fill-rule:nonzero;"/>
    </g>
    <g transform="matrix(4.16667,0,0,4.16667,-6675.08,-5460.33)">
        <path d="M1712.12,1580.32C1704.82,1604.11 1690.92,1609.86 1674.89,1606.13C1669.53,1604.48 1663.86,1601.72 1657.19,1595.25L1656.59,1593.05C1661.05,1591.38 1665.56,1589.88 1670.13,1588.59C1676.88,1586.39 1690.65,1582.64 1697.59,1581.13C1702.18,1579.93 1706.83,1578.94 1711.52,1578.13L1712.12,1580.32Z" style="fill:rgb(3,4,4);fill-rule:nonzero;"/>
    </g>
</svg>
