<?xml version="1.0" encoding="UTF-8" standalone="no"?>
<!DOCTYPE svg PUBLIC "-//W3C//DTD SVG 1.1//EN" "http://www.w3.org/Graphics/SVG/1.1/DTD/svg11.dtd">
<svg width="100%" height="100%" viewBox="0 0 2009 2006" version="1.1" xmlns="http://www.w3.org/2000/svg" xmlns:xlink="http://www.w3.org/1999/xlink" xml:space="preserve" xmlns:serif="http://www.serif.com/" style="fill-rule:evenodd;clip-rule:evenodd;stroke-linejoin:round;stroke-miterlimit:2;">
    <g transform="matrix(9.65193,0,0,9.65193,-21836.6,-13984.1)">
        <path d="M2431.28,1552.74C2431.28,1588.53 2402.26,1617.55 2366.47,1617.55C2330.68,1617.55 2301.66,1588.53 2301.66,1552.74C2301.66,1516.95 2330.68,1487.94 2366.47,1487.94C2402.26,1487.94 2431.28,1516.95 2431.28,1552.74Z" style="fill:rgb(3,4,4);fill-rule:nonzero;"/>
    </g>
    <g transform="matrix(4.16667,0,0,4.16667,-8855.92,-5466.92)">
        <path d="M2411.3,1638.98C2425.15,1654.04 2423.2,1691.87 2396.53,1741.26C2387.41,1757.42 2375.6,1775.03 2357.48,1793.42L2355.2,1793.42C2364.99,1775.16 2373.33,1758.58 2380.4,1743.39C2391.95,1719.52 2404.75,1682.21 2406.76,1667.86C2408.71,1657.62 2409.7,1648.36 2409.84,1639.87C2410.33,1639.57 2410.82,1639.28 2411.3,1638.98Z" style="fill:rgb(3,4,4);fill-rule:nonzero;"/>
    </g>
    <g transform="matrix(4.16667,0,0,4.16667,-8855.92,-5466.92)">
        <path d="M2373.35,1649.71C2380.89,1668.53 2363.18,1702.03 2328.05,1732.75C2316.43,1742.64 2302.96,1752.34 2286.75,1760.01C2286.33,1759.71 2285.9,1759.41 2285.48,1759.11C2296.92,1748.16 2307.35,1737.76 2316.78,1727.85C2331.74,1712.56 2353.22,1685.45 2359.74,1673.53C2364.66,1665.31 2368.63,1657.48 2371.72,1649.94C2372.26,1649.87 2372.81,1649.79 2373.35,1649.71Z" style="fill:rgb(3,4,4);fill-rule:nonzero;"/>
    </g>
    <g transform="matrix(4.16667,0,0,4.16667,-8855.92,-5466.92)">
        <path d="M2333.29,1644.55C2333.91,1664.96 2308.53,1687.77 2270.15,1702.19C2257.22,1706.71 2242.92,1710.52 2224.1,1711.37C2223.45,1710.93 2222.8,1710.49 2222.14,1710.05C2233.89,1704.44 2245.37,1698.96 2256.3,1693.58C2273.2,1685.41 2301.42,1669.12 2311.84,1660.84C2319.26,1655.29 2325.85,1649.72 2331.59,1644.09C2332.16,1644.24 2332.73,1644.4 2333.29,1644.55Z" style="fill:rgb(3,4,4);fill-rule:nonzero;"/>
    </g>
    <g transform="matrix(4.16667,0,0,4.16667,-8855.92,-5466.92)">
        <path d="M2296.56,1622.39C2287.19,1640.67 2253.57,1651.27 2202.11,1643.23C2184.92,1640.11 2165.6,1635.11 2141.54,1623.39C2141.02,1622.54 2140.5,1621.7 2139.98,1620.84C2158.36,1623.42 2175.32,1625.46 2190.93,1626.93C2215.4,1629.54 2253.62,1629.53 2267.8,1626.98C2277.98,1625.6 2287.05,1623.68 2295.17,1621.22C2295.64,1621.62 2296.1,1622.01 2296.56,1622.39Z" style="fill:rgb(3,4,4);fill-rule:nonzero;"/>
    </g>
    <g transform="matrix(4.16667,0,0,4.16667,-8855.92,-5466.92)">
        <path d="M2273.52,1587.87C2256.66,1599.64 2218.07,1592.44 2171.91,1560.69C2156.91,1549.99 2140.91,1536.61 2125.42,1517.85C2125.57,1517.2 2125.72,1516.54 2125.87,1515.88C2142.87,1527.35 2158.39,1537.25 2172.69,1545.79C2195.11,1559.62 2230.93,1576.34 2245.09,1580.01C2255.13,1583.12 2264.31,1585.19 2272.81,1586.34C2273.05,1586.85 2273.29,1587.36 2273.52,1587.87Z" style="fill:rgb(3,4,4);fill-rule:nonzero;"/>
    </g>
    <g transform="matrix(4.16667,0,0,4.16667,-8855.92,-5466.92)">
        <path d="M2267.19,1549.2C2247.5,1554.73 2216.21,1533.81 2189.97,1498.32C2181.52,1486.56 2173.5,1473.3 2167.6,1457.5C2167.92,1457.08 2168.24,1456.65 2168.55,1456.22C2177.92,1467.27 2186.96,1477.64 2195.68,1487.24C2209.05,1502.31 2233.66,1525.51 2244.87,1533.22C2252.54,1538.87 2259.94,1543.63 2267.14,1547.54C2267.16,1548.09 2267.18,1548.65 2267.19,1549.2Z" style="fill:rgb(3,4,4);fill-rule:nonzero;"/>
    </g>
    <g transform="matrix(4.16667,0,0,4.16667,-8855.92,-5466.92)">
        <path d="M2276.86,1509.4C2256.31,1507.18 2236.06,1479.54 2225.97,1437.82C2222.94,1423.72 2220.79,1408.1 2222.48,1387.25C2223.02,1386.55 2223.57,1385.85 2224.12,1385.14C2228.34,1398.39 2232.47,1411.23 2236.58,1423.41C2242.78,1442.27 2255.86,1473.63 2262.97,1485.36C2267.7,1493.7 2272.52,1501.16 2277.52,1507.74C2277.29,1508.29 2277.07,1508.85 2276.86,1509.4Z" style="fill:rgb(3,4,4);fill-rule:nonzero;"/>
    </g>
    <g transform="matrix(4.16667,0,0,4.16667,-8855.92,-5466.92)">
        <path d="M2303.01,1475.6C2286.12,1463.33 2279.5,1427.1 2294.59,1373.87C2300.03,1356.21 2307.74,1336.48 2322.59,1313.12C2323.47,1312.77 2324.34,1312.41 2325.22,1312.06C2319.89,1331.49 2315.43,1349.26 2311.81,1365.55C2305.77,1391.13 2300.93,1430.82 2301.79,1445.65C2301.94,1456.29 2302.79,1465.81 2304.3,1474.38C2303.87,1474.79 2303.44,1475.19 2303.01,1475.6Z" style="fill:rgb(3,4,4);fill-rule:nonzero;"/>
    </g>
    <g transform="matrix(4.16667,0,0,4.16667,-8855.92,-5466.92)">
        <path d="M2338.96,1457.26C2328.97,1439 2340.5,1400.72 2375.07,1358.94C2386.6,1345.43 2400.64,1331.38 2418.97,1318.78C2419.52,1319.04 2420.06,1319.3 2420.6,1319.55C2408.37,1334.83 2397.68,1348.92 2388.34,1362.01C2373.28,1382.46 2354.03,1416.08 2349.18,1429.8C2345.27,1439.44 2342.42,1448.37 2340.51,1456.73C2339.99,1456.91 2339.48,1457.08 2338.96,1457.26Z" style="fill:rgb(3,4,4);fill-rule:nonzero;"/>
    </g>
    <g transform="matrix(4.16667,0,0,4.16667,-8855.92,-5466.92)">
        <path d="M2377.65,1455.06C2373.74,1434.81 2396.52,1405.99 2432.04,1383.65C2443.86,1376.47 2456.96,1369.85 2472.87,1365.39C2473.33,1365.73 2473.8,1366.06 2474.27,1366.39C2463.48,1374.49 2453.11,1382.37 2443.37,1390.05C2428.18,1401.76 2403.76,1423.93 2395.25,1434.35C2389.09,1441.44 2383.78,1448.36 2379.31,1455.17C2378.75,1455.13 2378.2,1455.09 2377.65,1455.06Z" style="fill:rgb(3,4,4);fill-rule:nonzero;"/>
    </g>
    <g transform="matrix(4.16667,0,0,4.16667,-8855.92,-5466.92)">
        <path d="M2416.46,1468.65C2420.89,1448.41 2450.06,1430.74 2494.73,1425.34C2509.81,1423.92 2526.64,1423.61 2548.96,1428.05C2549.64,1428.7 2550.33,1429.35 2551.02,1430C2536.16,1432.53 2522,1435.08 2508.71,1437.75C2488.06,1441.68 2454.49,1451.32 2441.99,1457.23C2433.07,1461.07 2425.11,1465.13 2418.05,1469.47C2417.52,1469.19 2416.99,1468.92 2416.46,1468.65Z" style="fill:rgb(3,4,4);fill-rule:nonzero;"/>
    </g>
    <g transform="matrix(4.16667,0,0,4.16667,-8855.92,-5466.92)">
        <path d="M2447.02,1497.57C2460.74,1482.03 2497.93,1479.23 2549.84,1499.94C2566.94,1507.19 2585.86,1516.94 2607,1533.6C2607.18,1534.43 2607.35,1535.26 2607.52,1536.1C2588.37,1528.52 2570.94,1522.13 2555.02,1516.82C2529.98,1508.05 2491.19,1499.43 2476.54,1498.99C2466.05,1498.16 2456.63,1498.18 2448.08,1498.95C2447.72,1498.49 2447.37,1498.03 2447.02,1497.57Z" style="fill:rgb(3,4,4);fill-rule:nonzero;"/>
    </g>
    <g transform="matrix(4.16667,0,0,4.16667,-8855.92,-5466.92)">
        <path d="M2461.66,1534.34C2480.07,1525.35 2516.07,1539.75 2552.12,1574.47C2563.75,1585.98 2575.51,1599.7 2585.41,1616.78C2585.12,1617.24 2584.83,1617.7 2584.54,1618.16C2571.55,1606.3 2559.41,1595.76 2547.99,1586.42C2530.27,1571.47 2500.05,1551.41 2487.26,1545.9C2478.35,1541.59 2469.99,1538.3 2462.05,1535.92C2461.92,1535.39 2461.79,1534.86 2461.66,1534.34Z" style="fill:rgb(3,4,4);fill-rule:nonzero;"/>
    </g>
    <g transform="matrix(4.16667,0,0,4.16667,-8855.92,-5466.92)">
        <path d="M2460.64,1573.62C2480.89,1570.88 2506.62,1594.44 2525.11,1630.42C2531.01,1642.48 2536.3,1655.8 2539.22,1672.74C2538.86,1673.29 2538.5,1673.85 2538.14,1674.42C2531.28,1663.57 2524.59,1653.01 2518.03,1642.99C2508.07,1627.45 2488.72,1601.84 2479.3,1592.64C2472.93,1586.04 2466.65,1580.26 2460.37,1575.3C2460.46,1574.74 2460.55,1574.17 2460.64,1573.62Z" style="fill:rgb(3,4,4);fill-rule:nonzero;"/>
    </g>
    <g transform="matrix(4.16667,0,0,4.16667,-8855.92,-5466.92)">
        <path d="M2443.13,1611.78C2462.58,1618.28 2477.06,1649.11 2476.31,1697.15C2475.64,1713.3 2473.51,1731.44 2465.55,1754.97C2464.79,1755.6 2464.04,1756.24 2463.28,1756.87C2463.08,1740.22 2462.65,1724.66 2461.89,1710.22C2460.98,1687.67 2455.8,1651.94 2451.43,1638.71C2448.72,1629.24 2445.63,1620.8 2442.14,1613.29C2442.47,1612.78 2442.8,1612.28 2443.13,1611.78Z" style="fill:rgb(3,4,4);fill-rule:nonzero;"/>
    </g>
    <g transform="matrix(4.16667,0,0,4.16667,-8855.92,-5466.92)">
        <path d="M2291.86,1545.86C2276.22,1548.23 2252.81,1530.62 2232.68,1492.16C2226.27,1479.32 2220.08,1464.13 2216.13,1444.56C2216.46,1444.08 2216.78,1443.59 2217.11,1443.1C2224.58,1457.27 2231.61,1469.79 2238.29,1480.9C2248.6,1498.63 2266.98,1522.97 2275.31,1530.46C2281.03,1536.14 2286.54,1540.78 2291.92,1544.54C2291.9,1544.98 2291.88,1545.42 2291.86,1545.86Z" style="fill:rgb(3,4,4);fill-rule:nonzero;"/>
    </g>
    <g transform="matrix(4.16667,0,0,4.16667,-8855.92,-5466.92)">
        <path d="M2301.39,1516.89C2286.07,1513.58 2272.25,1487.74 2267.75,1451.94C2266.43,1440.21 2266.04,1427.38 2268.13,1413.67C2268.51,1413.53 2268.89,1413.39 2269.27,1413.24C2271.33,1425.32 2273.49,1436.5 2275.77,1446.83C2279.1,1463.04 2287.19,1488.53 2292.01,1497.87C2295.16,1504.58 2298.46,1510.51 2301.95,1515.74C2301.77,1516.13 2301.58,1516.51 2301.39,1516.89Z" style="fill:rgb(3,4,4);fill-rule:nonzero;"/>
    </g>
    <g transform="matrix(4.16667,0,0,4.16667,-8855.92,-5466.92)">
        <path d="M2322.03,1493.44C2308.68,1485.01 2305.03,1458.87 2312.38,1428.04C2315.08,1417.79 2318.82,1406.98 2326.42,1394.54C2326.98,1394.32 2327.54,1394.09 2328.11,1393.85C2326.63,1403.81 2325.17,1413.54 2323.9,1422.88C2321.82,1437.24 2320.06,1462.39 2320.86,1472.65C2321.22,1479.8 2321.93,1486.43 2323.06,1492.55C2322.71,1492.85 2322.37,1493.15 2322.03,1493.44Z" style="fill:rgb(3,4,4);fill-rule:nonzero;"/>
    </g>
    <g transform="matrix(4.16667,0,0,4.16667,-8855.92,-5466.92)">
        <path d="M2352.12,1479.47C2344.46,1465.56 2352.2,1439.43 2379.61,1409.91C2389.04,1400.24 2400.6,1390.02 2418.53,1379.66C2419.29,1379.7 2420.06,1379.73 2420.83,1379.76C2411.23,1390.43 2402.59,1400.42 2394.9,1409.79C2382.64,1424.35 2366.12,1448.86 2361.62,1459.05C2358.1,1466.17 2355.41,1472.82 2353.47,1479.09C2353.02,1479.22 2352.57,1479.35 2352.12,1479.47C2352.12,1479.48 2352.12,1479.48 2352.12,1479.47Z" style="fill:rgb(3,4,4);fill-rule:nonzero;"/>
    </g>
    <g transform="matrix(4.16667,0,0,4.16667,-8855.92,-5466.92)">
        <path d="M2384.21,1479.64C2383.96,1463.74 2405.26,1442.11 2445.58,1426.25C2458.93,1421.25 2474.43,1416.79 2493.16,1414.97C2493.51,1415.35 2493.87,1415.73 2494.22,1416.11C2479.52,1422.05 2466.46,1427.72 2454.8,1433.19C2436.24,1441.58 2410.03,1457.31 2401.55,1464.81C2395.22,1469.9 2389.92,1474.89 2385.5,1479.84C2385.07,1479.77 2384.64,1479.7 2384.21,1479.64Z" style="fill:rgb(3,4,4);fill-rule:nonzero;"/>
    </g>
    <g transform="matrix(4.16667,0,0,4.16667,-8855.92,-5466.92)">
        <path d="M2411.75,1492.3C2416.72,1477.29 2443.66,1466.27 2477.76,1464.8C2488.95,1464.47 2500.92,1465.07 2513.61,1468.11C2513.74,1468.5 2513.88,1468.89 2514.02,1469.27C2502.88,1470.5 2492.32,1471.81 2482.4,1473.25C2466.95,1475.3 2441.44,1481.05 2431.65,1484.9C2424.71,1487.38 2418.45,1490.06 2412.83,1492.99C2412.47,1492.76 2412.11,1492.53 2411.75,1492.3Z" style="fill:rgb(3,4,4);fill-rule:nonzero;"/>
    </g>
    <g transform="matrix(4.16667,0,0,4.16667,-8855.92,-5466.92)">
        <path d="M2433.08,1515.71C2443.39,1503.5 2469.87,1502.47 2500.98,1514.05C2511.33,1518.2 2522.27,1523.57 2534.91,1533.67C2535.12,1534.32 2535.34,1534.98 2535.55,1535.64C2525.24,1532.62 2515.21,1529.71 2505.63,1527.08C2490.86,1522.89 2465.09,1517.72 2454.5,1517.21C2447.11,1516.63 2440.24,1516.49 2433.86,1516.85C2433.6,1516.47 2433.34,1516.09 2433.08,1515.71Z" style="fill:rgb(3,4,4);fill-rule:nonzero;"/>
    </g>
    <g transform="matrix(4.16667,0,0,4.16667,-8855.92,-5466.92)">
        <path d="M2443.44,1547.09C2458.61,1541.57 2484.7,1553 2512.3,1585.69C2521.27,1596.82 2530.59,1610.29 2539.14,1629.92C2538.98,1630.63 2538.83,1631.35 2538.68,1632.06C2528.53,1620.24 2519.06,1609.7 2510.19,1600.33C2496.4,1585.4 2473.05,1565.13 2463.17,1559.27C2456.28,1554.76 2449.81,1551.19 2443.66,1548.45C2443.59,1548 2443.52,1547.55 2443.44,1547.09Z" style="fill:rgb(3,4,4);fill-rule:nonzero;"/>
    </g>
    <g transform="matrix(4.16667,0,0,4.16667,-8855.92,-5466.92)">
        <path d="M2439.65,1578.08C2455.68,1579.57 2475.23,1603.51 2487.07,1643.74C2490.75,1656.98 2493.67,1672.06 2493.82,1689.26C2493.42,1689.5 2493.02,1689.73 2492.63,1689.97C2488.12,1675.52 2483.71,1662.57 2479.36,1650.92C2472.76,1632.42 2459.53,1605.54 2452.84,1596.5C2448.34,1589.82 2443.85,1584.14 2439.32,1579.3C2439.43,1578.89 2439.54,1578.48 2439.65,1578.08Z" style="fill:rgb(3,4,4);fill-rule:nonzero;"/>
    </g>
    <g transform="matrix(4.16667,0,0,4.16667,-8855.92,-5466.92)">
        <path d="M2424.33,1603.83C2439,1610.09 2447.62,1637.15 2446.59,1669.58C2446.08,1680.27 2444.66,1691.53 2440.63,1703.66C2440.22,1703.81 2439.8,1703.96 2439.39,1704.12C2438.86,1693.7 2438.29,1683.64 2437.59,1674.08C2436.65,1659.28 2432.99,1634.04 2429.99,1624.07C2428.11,1617.06 2425.97,1610.66 2423.54,1604.85C2423.81,1604.51 2424.07,1604.17 2424.33,1603.83Z" style="fill:rgb(3,4,4);fill-rule:nonzero;"/>
    </g>
    <g transform="matrix(4.16667,0,0,4.16667,-8855.92,-5466.92)">
        <path d="M2398.83,1622.84C2409.89,1634.42 2408.61,1660.77 2392.75,1691.75C2387.14,1702.03 2380.06,1712.95 2367.55,1725.33C2366.85,1725.5 2366.13,1725.66 2365.41,1725.82C2370.22,1715.2 2374.71,1705.01 2378.74,1695.34C2385.15,1680.4 2393.49,1654.71 2395.11,1644.14C2396.51,1636.76 2397.35,1629.9 2397.62,1623.5C2398.02,1623.28 2398.43,1623.06 2398.83,1622.84Z" style="fill:rgb(3,4,4);fill-rule:nonzero;"/>
    </g>
    <g transform="matrix(4.16667,0,0,4.16667,-8855.92,-5466.92)">
        <path d="M2367.07,1629.92C2371.1,1645.44 2356.81,1670.49 2321.09,1694.81C2309.05,1702.64 2294.61,1710.56 2274.79,1716.9C2274.18,1716.65 2273.57,1716.4 2272.96,1716.15C2286.1,1707.15 2297.73,1698.74 2308.03,1690.83C2324.47,1678.57 2346.78,1657.43 2353.4,1648.23C2358.46,1641.86 2362.53,1635.82 2365.73,1630C2366.18,1629.97 2366.63,1629.95 2367.07,1629.92Z" style="fill:rgb(3,4,4);fill-rule:nonzero;"/>
    </g>
    <g transform="matrix(4.16667,0,0,4.16667,-8855.92,-5466.92)">
        <path d="M2337.17,1623.4C2334.97,1639.09 2310.17,1655.95 2272.32,1664.04C2259.91,1666.52 2246.03,1668.12 2230.8,1667.09C2230.63,1666.7 2230.46,1666.32 2230.29,1665.93C2243.51,1662.73 2255.52,1659.51 2266.44,1656.22C2283.69,1651.33 2309.62,1640.63 2318.69,1634.82C2325.3,1630.97 2331.03,1627.03 2335.99,1622.97C2336.38,1623.12 2336.78,1623.26 2337.17,1623.4C2337.17,1623.41 2337.17,1623.41 2337.17,1623.4Z" style="fill:rgb(3,4,4);fill-rule:nonzero;"/>
    </g>
    <g transform="matrix(4.16667,0,0,4.16667,-8855.92,-5466.92)">
        <path d="M2312.43,1605.76C2305.42,1619.93 2279.19,1626.24 2248.13,1622.53C2237.85,1621.09 2227.02,1618.73 2214.9,1613.27C2214.7,1612.8 2214.5,1612.33 2214.29,1611.85C2224.21,1612.15 2233.87,1612.42 2243.13,1612.55C2257.4,1612.88 2282.19,1611.55 2292.17,1609.5C2299.15,1608.27 2305.57,1606.74 2311.46,1604.86C2311.79,1605.16 2312.11,1605.46 2312.43,1605.76Z" style="fill:rgb(3,4,4);fill-rule:nonzero;"/>
    </g>
    <g transform="matrix(4.16667,0,0,4.16667,-8855.92,-5466.92)">
        <path d="M2295.53,1578.03C2282.95,1587.69 2256.93,1583.64 2226.45,1562.38C2216.39,1554.97 2205.68,1545.75 2194.04,1530.47C2193.96,1529.72 2193.88,1528.96 2193.8,1528.2C2204.56,1535.27 2214.73,1541.73 2224.31,1547.48C2239.16,1556.65 2264.31,1568.79 2274.68,1571.71C2281.93,1574.06 2288.67,1575.73 2295,1576.75C2295.18,1577.18 2295.35,1577.61 2295.53,1578.03Z" style="fill:rgb(3,4,4);fill-rule:nonzero;"/>
    </g>
</svg>
