<?xml version="1.0" encoding="UTF-8" standalone="no"?>
<!DOCTYPE svg PUBLIC "-//W3C//DTD SVG 1.1//EN" "http://www.w3.org/Graphics/SVG/1.1/DTD/svg11.dtd">
<svg width="100%" height="100%" viewBox="0 0 650 650" version="1.1" xmlns="http://www.w3.org/2000/svg" xmlns:xlink="http://www.w3.org/1999/xlink" xml:space="preserve" xmlns:serif="http://www.serif.com/" style="fill-rule:evenodd;clip-rule:evenodd;stroke-linecap:round;stroke-linejoin:round;stroke-miterlimit:1.5;">
    <g transform="matrix(1,0,0,1,39.1516,-133.348)">
        <path d="M285.652,419C256.676,419 233.152,395.476 233.152,366.5C233.152,337.524 256.676,314 285.652,314C314.627,314 338.152,337.524 338.152,366.5C338.152,395.476 314.627,419 285.652,419ZM285.652,419C336.235,419 377.303,460.068 377.303,510.652C377.303,561.235 336.235,602.303 285.652,602.303C235.068,602.303 194,561.235 194,510.652C194,460.068 235.068,419 285.652,419Z" style="stroke:black;stroke-width:1px;"/>
    </g>
    <path d="M324.803,0C504.067,0 649.606,145.539 649.606,324.803C649.606,504.067 504.067,649.606 324.803,649.606C145.539,649.606 0,504.067 0,324.803C0,145.539 145.539,0 324.803,0ZM324.803,83.333C191.532,83.333 83.333,191.532 83.333,324.803C83.333,458.074 191.532,566.273 324.803,566.273C458.074,566.273 566.273,458.074 566.273,324.803C566.273,191.532 458.074,83.333 324.803,83.333Z"/>
</svg>
