<?xml version="1.0" encoding="UTF-8" standalone="no"?>
<!DOCTYPE svg PUBLIC "-//W3C//DTD SVG 1.1//EN" "http://www.w3.org/Graphics/SVG/1.1/DTD/svg11.dtd">
<svg width="100%" height="100%" viewBox="0 0 650 650" version="1.1" xmlns="http://www.w3.org/2000/svg" xmlns:xlink="http://www.w3.org/1999/xlink" xml:space="preserve" xmlns:serif="http://www.serif.com/" style="fill-rule:evenodd;clip-rule:evenodd;stroke-linejoin:round;stroke-miterlimit:2;">
    <g transform="matrix(1.17575,0,0,1.41517,-118.81,-222.7)">
        <path d="M332.651,616.394C224.646,615.996 147.913,528.189 147.913,420.092C147.913,311.749 268.96,238.628 377.303,238.628C485.646,238.628 606.818,311.749 606.818,420.092C606.818,528.434 530.298,616.395 421.956,616.395C503.112,616.332 524.33,582.113 524.33,499.066C524.33,415.98 458.398,348.526 377.189,348.526C295.981,348.526 230.049,415.98 230.049,499.066C230.049,581.939 251.728,616.05 332.651,616.394Z" style="fill:rgb(124,14,131);"/>
    </g>
    <g transform="matrix(1.59142,-1.05627,1.02643,1.07886,-262.016,270.424)">
        <path d="M224.174,-31.176C224.174,-31.176 161.526,61.384 162.61,93.002C163.695,124.621 192.413,157.462 192.413,157.462L87.932,180.059C87.932,180.059 96.694,122.57 106.159,96.181C112.766,77.758 130.116,51.579 146.078,37.887C158.02,27.643 224.174,-31.176 224.174,-31.176Z" style="fill:rgb(124,14,131);"/>
    </g>
    <g transform="matrix(-1.59142,-1.05627,-1.02643,1.07886,911.622,270.424)">
        <path d="M224.174,-31.176C224.174,-31.176 161.526,61.384 162.61,93.002C163.695,124.621 193.737,167.1 193.737,167.1L87.932,180.059C87.932,180.059 96.694,122.57 106.159,96.181C112.766,77.758 130.116,51.579 146.078,37.887C158.02,27.643 224.174,-31.176 224.174,-31.176Z" style="fill:rgb(124,14,131);"/>
    </g>
    <g transform="matrix(0.435685,0,0,0.435685,182.116,133.363)">
        <circle cx="327.5" cy="463.5" r="120.5" style="fill:rgb(124,14,131);"/>
    </g>
    <g transform="matrix(1,0,0,1,39.1516,-31.1969)">
        <circle cx="285.652" cy="510.652" r="91.652" style="fill:rgb(124,14,131);"/>
    </g>
</svg>
